<?xml version="1.0" encoding="UTF-8" standalone="no"?>
<!-- Created with Inkscape (http://www.inkscape.org/) -->

<svg
   width="210mm"
   height="297mm"
   viewBox="0 0 210 297"
   version="1.1"
   id="svg1"
   xml:space="preserve"
   inkscape:version="1.4.3 (1:1.4.3+202512261035+0d15f75042)"
   sodipodi:docname="enervent_diagram_fi.svg"
   inkscape:export-filename="enervent_diagram_fi.png"
   inkscape:export-xdpi="96"
   inkscape:export-ydpi="96"
   xmlns:inkscape="http://www.inkscape.org/namespaces/inkscape"
   xmlns:sodipodi="http://sodipodi.sourceforge.net/DTD/sodipodi-0.dtd"
   xmlns="http://www.w3.org/2000/svg"
   xmlns:svg="http://www.w3.org/2000/svg"><sodipodi:namedview
     id="namedview1"
     pagecolor="#ffffff"
     bordercolor="#000000"
     borderopacity="0.25"
     inkscape:showpageshadow="2"
     inkscape:pageopacity="0.0"
     inkscape:pagecheckerboard="0"
     inkscape:deskcolor="#d1d1d1"
     inkscape:document-units="mm"
     showguides="true"
     inkscape:zoom="2.0308884"
     inkscape:cx="379.883"
     inkscape:cy="467.28317"
     inkscape:window-width="1920"
     inkscape:window-height="1043"
     inkscape:window-x="1920"
     inkscape:window-y="0"
     inkscape:window-maximized="1"
     inkscape:current-layer="g60"
     inkscape:export-bgcolor="#ffffffff"><sodipodi:guide
       position="143.52543,181.29529"
       orientation="0,-1"
       id="guide2"
       inkscape:locked="false" /><sodipodi:guide
       position="104.46588,117.27078"
       orientation="0,-1"
       id="guide33"
       inkscape:locked="false" /></sodipodi:namedview><defs
     id="defs1" /><g
     inkscape:label="Layer 1"
     inkscape:groupmode="layer"
     id="layer1"><g
       id="g60"
       inkscape:label="enervent kaavio"><path
         id="rect3464"
         style="display:inline;fill:none;stroke:#000000;stroke-width:1;stroke-dasharray:none"
         d="m 113.67782,75.908028 v 10.857735 l -9.0377,-2.591573 -73.017761,21.05039 -0.508496,12.61577 9.971484,-2.21574 V 230.20352 H 169.21034 V 115.62964 l 9.2258,2.21071 -0.003,-12.50724 -57.01719,-16.348877 V 75.908028 Z"
         sodipodi:nodetypes="cccccccccccccc"
         inkscape:label="talo ulkoviiva" /><g
         id="g14"
         inkscape:label="mittapiste-jäteilma-lämpötila"
         transform="matrix(1.1289075,0,0,0.99900848,-13.220815,0.12349161)"
         style="fill:#ffe680"><path
           id="path13"
           style="fill:#ffe680;stroke:#504416;stroke-width:0.15631"
           d="m 109.27806,124.54839 c 0,2.65769 -2.60817,4.81217 -5.82551,4.81217 -3.21734,0 -5.825504,-2.15448 -5.825502,-4.81217 5e-6,-2.65768 2.608172,-4.81216 5.825502,-4.81216 3.21734,0 5.82551,2.15447 5.82551,4.81216 z"
           sodipodi:nodetypes="sssss" /><path
           style="fill:#ffe680;fill-opacity:1;stroke:#504416;stroke-width:0.2;stroke-dasharray:none"
           d="m 109.27923,124.52535 5.9879,1e-5"
           id="path14"
           sodipodi:nodetypes="cc" /></g><g
         id="g17"
         inkscape:label="mittapiste-poistoilma-lämpötila"
         transform="matrix(1.1439582,0,0,0.9994367,-10.439716,0.5988612)"
         style="fill:#ffe680"><path
           id="path16"
           style="fill:#ffe680;stroke:#504416;stroke-width:0.15631"
           d="m 62.812656,126.19902 c 0,-2.65769 2.60817,-4.81217 5.82551,-4.81217 3.21734,0 5.8255,2.15448 5.8255,4.81217 -1e-5,2.65768 -2.60817,4.81216 -5.8255,4.81216 -3.21734,0 -5.82551,-2.15447 -5.82551,-4.81216 z"
           sodipodi:nodetypes="sssss" /><path
           style="fill:#ffe680;fill-opacity:1;stroke:#504416;stroke-width:0.214681;stroke-dasharray:none"
           d="m 68.661206,131.11372 -1e-5,6.89988"
           id="path17"
           sodipodi:nodetypes="cc" /></g><g
         id="g19"
         transform="matrix(1.1439325,0,0,-0.98723408,-10.437946,278.40569)"
         inkscape:label="mittapiste-poistoilma-kosteus"
         style="fill:#c8ab37"><path
           id="path18"
           style="fill:#c8ab37;stroke:#504416;stroke-width:0.15631"
           d="m 62.812656,126.19902 c 0,-2.65769 2.60817,-4.81217 5.82551,-4.81217 3.21734,0 5.8255,2.15448 5.8255,4.81217 -1e-5,2.65768 -2.60817,4.81216 -5.8255,4.81216 -3.21734,0 -5.82551,-2.15447 -5.82551,-4.81216 z"
           sodipodi:nodetypes="sssss" /><path
           style="fill:#c8ab37;fill-opacity:1;stroke:#504416;stroke-width:0.214681;stroke-dasharray:none"
           d="m 68.661206,131.11372 -1e-5,6.89988"
           id="path19"
           sodipodi:nodetypes="cc" /></g><path
         id="rect6"
         style="fill:#ffdd55;stroke:#0000ff;stroke-width:0.210808;fill-opacity:1;fill-rule:evenodd"
         d="m 115.44774,72.715975 c -0.10301,0 -0.093,65.385675 -0.093,65.385675 l -21.589384,0.0953 c -0.117971,0 0,3.96771 0,3.96771 0,0.10559 25.550634,0.0804 25.550634,0.0804 0.10301,0 0,-69.529085 0,-69.529085 0,-0.102991 -3.86823,0 -3.86823,0 z"
         sodipodi:nodetypes="cccccccc" /><path
         id="path7"
         style="fill:#00ffff;stroke:#0000ff;stroke-width:0.201771"
         d="m 143.88843,126.20665 c -0.10804,0 0.0417,40.50983 0.0417,40.50983 l -50.283687,0.0938 c -0.19741,0 -0.165151,3.97032 -0.165151,3.97032 9.125648,0.25649 54.130988,0.19409 54.130988,0.19409 0.0958,0 0.0864,-40.70417 0.0864,-40.70417 l 23.90708,-0.0953 c 0.10804,0 0,-3.96852 0,-3.96852 0,-0.10561 -27.71725,0 -27.71725,0 z"
         sodipodi:nodetypes="ccccccccc" /><path
         id="path9"
         style="fill:#ff7f2a;stroke:#0000ff;stroke-width:0.193636"
         d="m 50.436556,138.01631 h 25.248438 c 0.09914,0 0.17894,0.0855 0.17894,0.19148 v 3.79237 c 0,0.10607 -0.07982,0.19148 -0.17894,0.19148 H 50.436556 c -0.09913,0 -0.178932,-0.0855 -0.178932,-0.19148 v -3.79237 c 0,-0.10608 0.07981,-0.19148 0.178932,-0.19148 z" /><path
         style="fill:#000000;fill-opacity:1;stroke:#0000ff;stroke-width:0.245667;stroke-dasharray:none"
         d="m 174.73784,128.1851 -4.41919,0.0975 0.29707,-0.80829 -1.67978,1.08626 1.73884,0.75085 -0.2992,-0.62658 4.38917,-0.0624 z"
         id="path11"
         sodipodi:nodetypes="cccccccc" /><path
         style="fill:#000000;fill-opacity:1;stroke:#0000ff;stroke-width:0.245667;stroke-dasharray:none"
         d="m 116.86485,103.28367 0.0975,-4.419181 -0.80829,0.297067 1.08626,-1.679771 0.75085,1.738831 -0.62658,-0.299197 -0.0624,4.389161 z"
         id="path12"
         sodipodi:nodetypes="cccccccc" /><path
         id="path4"
         style="fill:#ffffff;fill-opacity:1;stroke:#000000;stroke-width:0.386325"
         inkscape:transform-center-x="-0.81118255"
         inkscape:transform-center-y="-0.0014686715"
         d="m 97.868723,142.96024 0.006,-3.27217 0.006,-3.27218 2.439317,1.6383 2.43935,1.6383 -2.44514,1.63387 z m 5.025827,-3.21315 a 3.527193,3.9229435 0 0 1 -3.527207,3.92294 3.527193,3.9229435 0 0 1 -3.5272,-3.92294 3.527193,3.9229435 0 0 1 3.5272,-3.92294 3.527193,3.9229435 0 0 1 3.527207,3.92294 z" /><path
         id="path2"
         style="fill:#ffffff;fill-opacity:1;stroke:#6c6753;stroke-width:0.512856;stroke-dasharray:none"
         d="m 120.78325,163.86514 c -5.26122,1.61747 -5.51676,1.50883 -5.51676,1.50883 l 5.31093,1.08672 -4.83976,2.43883 4.74372,1.39507 -4.7006,1.759 4.91622,1.19289 0.0431,0.0606 m -5.35025,-9.52287 h 5.61183 c 0.0701,0 0.12657,0.0529 0.12657,0.11867 v 9.54836 c 0,0.0658 -0.0565,0.11868 -0.12657,0.11868 h -5.61183 c -0.0701,0 -0.12656,-0.053 -0.12656,-0.11868 v -9.54836 c 0,-0.0657 0.0565,-0.11867 0.12656,-0.11867 z"
         inkscape:label="suodatin-tulo" /><path
         id="path15"
         style="fill:#ffffff;fill-opacity:1;stroke:#6c6753;stroke-width:0.512856;stroke-dasharray:none"
         d="m 61.448514,135.1232 c -5.26122,1.61747 -5.51676,1.50883 -5.51676,1.50883 l 5.31093,1.08672 -4.83976,2.43883 4.74372,1.39507 -4.7006,1.759 4.91622,1.19289 0.0431,0.0606 m -5.35025,-9.52287 h 5.61183 c 0.0701,0 0.12657,0.0529 0.12657,0.11867 v 9.54836 c 0,0.0658 -0.0565,0.11868 -0.12657,0.11868 h -5.61183 c -0.0701,0 -0.12656,-0.053 -0.12656,-0.11868 v -9.54836 c 0,-0.0657 0.0565,-0.11867 0.12656,-0.11867 z"
         inkscape:label="suodatin-poisto" /><path
         id="path20"
         style="fill:#ff7f2a;stroke:#0000ff;stroke-width:0.193636"
         d="m 50.436715,166.59138 c -0.09912,0 -0.179318,0.0856 -0.179318,0.19172 v 3.79202 c 0,0.0485 0.01685,0.0929 0.04444,0.12661 l -0.08888,31.23995 c 0.343061,0.15951 10.775567,-0.27348 12.581661,-0.28474 v 3.13469 l -13.284461,0.0964 c -0.07329,0 0,5.59707 0,5.59707 0,0.1067 13.380062,0.12144 13.380062,0.12144 l 7.104476,-0.0705 c 0.105907,0 0.0956,-2.67167 0.0956,-2.67167 l 5.527312,0.0961 -0.04599,-9.94409 -5.48132,0.0481 v -2.69028 c 0,-0.10588 -0.08529,-0.1912 -0.191202,-0.1912 h -6.913274 c -0.01054,0.10538 -0.191202,0.0853 -0.191202,0.1912 v 2.15491 c -1.31234,-0.0564 -8.340576,0.0656 -8.340576,0.0656 v -26.82782 h 21.230745 c 0.09912,0 0.179317,-0.0857 0.179317,-0.19172 v -3.79202 c 0,-0.10598 -0.08018,-0.19172 -0.179317,-0.19172 z"
         sodipodi:nodetypes="sssccccccccccccsscscccsssss" /><path
         id="path21"
         style="fill:#ffffff;fill-opacity:1;stroke:#000000;stroke-width:0.386325"
         inkscape:transform-center-x="0.81118495"
         inkscape:transform-center-y="-0.0014686715"
         d="m 62.140039,171.86949 -0.006,-3.27217 -0.006,-3.27218 -2.439317,1.6383 -2.43935,1.6383 2.44514,1.63387 z m -5.025827,-3.21315 a 3.527193,3.9229435 0 0 0 3.527207,3.92294 3.527193,3.9229435 0 0 0 3.527195,-3.92294 3.527193,3.9229435 0 0 0 -3.527195,-3.92294 3.527193,3.9229435 0 0 0 -3.527207,3.92294 z" /><g
         id="g53"
         inkscape:label="mittapiste-tuloilma-lto-jälkeen"
         transform="matrix(1.1439566,0,0,0.99971114,-9.0367651,0.04936887)"
         style="fill:#ffe680"><path
           id="path22"
           style="fill:#ffe680;stroke:#504416;stroke-width:0.155339"
           d="m 62.812312,184.51331 c 0,2.62461 2.608323,4.75226 5.825852,4.75226 3.217529,0 5.825842,-2.12765 5.825842,-4.75226 -1e-5,-2.62459 -2.608323,-4.75225 -5.825842,-4.75225 -3.217529,0 -5.825852,2.12765 -5.825852,4.75225 z"
           sodipodi:nodetypes="sssss" /><path
           style="fill:#ffe680;fill-opacity:1;stroke:#504416;stroke-width:0.241724;stroke-dasharray:none"
           d="m 68.661205,179.65982 -10e-6,-8.74857"
           id="path23"
           sodipodi:nodetypes="cc" /></g><g
         id="g54"
         inkscape:label="mittapiste-tuloilma"
         transform="matrix(1.1439562,0,0,0.99971115,-14.216762,0.04936842)"
         style="fill:#ffe680"><path
           id="path24"
           style="fill:#ffe680;stroke:#504416;stroke-width:0.155339"
           d="m 98.795662,184.51331 c 0,2.62461 2.608328,4.75226 5.825848,4.75226 3.21753,0 5.82585,-2.12765 5.82585,-4.75226 -1e-5,-2.62459 -2.60833,-4.75225 -5.82585,-4.75225 -3.21752,0 -5.825848,2.12765 -5.825848,4.75225 z"
           sodipodi:nodetypes="sssss" /><path
           style="fill:#ffe680;fill-opacity:1;stroke:#504416;stroke-width:0.131285;stroke-dasharray:none"
           d="m 104.50637,179.65989 v -8.74871"
           id="path25"
           sodipodi:nodetypes="cc" /></g><path
         style="fill:#000000;fill-opacity:1;stroke:#0000ff;stroke-width:0.245667;stroke-dasharray:none"
         d="m 46.603134,139.60818 4.41919,0.0975 -0.29707,-0.80829 1.67978,1.08626 -1.73884,0.75085 0.2992,-0.62658 -4.38917,-0.0624 z"
         id="path26"
         sodipodi:nodetypes="cccccccc" /><path
         id="path33"
         style="fill:#d45500;stroke:#0000ff;stroke-width:0.240184"
         d="m 93.660793,197.62132 h 34.115997 c 0.0924,0 0.16678,0.14109 0.16678,0.31608 v 6.26026 c 0,0.17511 -0.0743,0.31608 -0.16678,0.31608 H 93.660793 c -0.09237,0 -0.166775,-0.14109 -0.166775,-0.31608 v -6.26026 c 0,-0.17512 0.07437,-0.31608 0.166775,-0.31608 z"
         sodipodi:nodetypes="sssssssss" /><path
         id="path34"
         style="fill:#ffffff;fill-opacity:1;stroke:#000000;stroke-width:0.541036"
         inkscape:transform-center-x="-1.1632469"
         inkscape:transform-center-y="-0.0020049197"
         d="m 104.72214,205.08017 0.009,-4.47538 0.009,-4.47538 3.49803,2.24071 3.49806,2.24072 -3.50637,2.23466 z m 7.20711,-4.39465 a 5.0580486,5.3654436 0 0 1 -5.05807,5.36544 5.0580486,5.3654436 0 0 1 -5.05806,-5.36544 5.0580486,5.3654436 0 0 1 5.05806,-5.36544 5.0580486,5.3654436 0 0 1 5.05807,5.36544 z" /><path
         style="fill:#000000;fill-opacity:1;stroke:#0000ff;stroke-width:0.245667;stroke-dasharray:none"
         d="m 126.06992,200.6848 4.41919,0.0975 -0.29707,-0.80829 1.67978,1.08626 -1.73884,0.75085 0.2992,-0.62658 -4.38917,-0.0624 z"
         id="path35"
         sodipodi:nodetypes="cccccccc" /><path
         style="fill:#000000;fill-opacity:1;stroke:#0000ff;stroke-width:0.245667;stroke-dasharray:none"
         d="m 46.326767,207.10975 4.41919,0.0975 -0.29707,-0.80829 1.67978,1.08626 -1.73884,0.75085 0.2992,-0.62658 -4.38917,-0.0624 z"
         id="path36"
         sodipodi:nodetypes="cccccccc" /><path
         id="rect36"
         style="fill:#28220b;fill-rule:evenodd;stroke:#28220b;stroke-width:0.269545"
         d="m 51.624109,217.87836 h 24.036414 c 0.128616,0 0.232173,0.0679 0.232173,0.15235 v 0.50281 c 0,0.0844 -0.103537,0.15235 -0.232173,0.15235 H 51.624109 c -0.128616,0 -0.232173,-0.0679 -0.232173,-0.15235 v -0.50281 c 0,-0.0844 0.103538,-0.15235 0.232173,-0.15235 z" /><path
         id="path37"
         style="fill:#28220b;fill-rule:evenodd;stroke:#28220b;stroke-width:0.200984"
         d="m 93.378612,217.73894 h 9.933548 c 0.0531,0 0.0959,0.0914 0.0959,0.20493 v 0.67647 c 0,0.11354 -0.0428,0.20493 -0.0959,0.20493 h -9.933548 c -0.05316,0 -0.09594,-0.0914 -0.09594,-0.20493 v -0.67647 c 0,-0.11354 0.04279,-0.20493 0.09594,-0.20493 z" /><path
         id="path38"
         style="fill:#28220b;fill-rule:evenodd;stroke:#28220b;stroke-width:0.196898"
         d="m 103.39897,218.19712 v 9.49797 c 0,0.0509 -0.0918,0.0917 -0.20571,0.0917 h -0.67901 c -0.11397,0 -0.20571,-0.0409 -0.20571,-0.0917 v -9.49797 c 0,-0.0509 0.0918,-0.0917 0.20571,-0.0917 h 0.67901 c 0.11397,0 0.20571,0.0409 0.20571,0.0917 z" /><path
         id="path39"
         style="fill:#28220b;fill-rule:evenodd;stroke:#28220b;stroke-width:0.366578"
         d="m 63.793277,226.8574 h 38.987963 c 0.20864,0 0.37659,0.0774 0.37659,0.1737 v 0.57335 c 0,0.0964 -0.16803,0.1737 -0.37659,0.1737 H 63.793277 c -0.208634,0 -0.376593,-0.0774 -0.376593,-0.1737 v -0.57335 c 0,-0.0964 0.167949,-0.1737 0.376593,-0.1737 z" /><path
         id="path40"
         style="fill:#28220b;fill-rule:evenodd;stroke:#28220b;stroke-width:0.14096"
         d="m 61.129437,218.79676 v 5.22414 c 0,0.028 -0.08552,0.0504 -0.19169,0.0504 h -0.632708 c -0.106203,0 -0.19169,-0.0224 -0.19169,-0.0504 v -5.22414 c 0,-0.0279 0.08552,-0.0504 0.19169,-0.0504 h 0.632708 c 0.106203,0 0.19169,0.0224 0.19169,0.0504 z" /><path
         id="path41"
         style="fill:#28220b;fill-rule:evenodd;stroke:#28220b;stroke-width:0.164842"
         d="m 51.244521,226.71676 h 6.467059 c 0.03461,0 0.06247,0.0946 0.06247,0.21177 v 0.69895 c 0,0.11732 -0.02786,0.21177 -0.06247,0.21177 h -6.467059 c -0.03461,0 -0.06247,-0.0946 -0.06247,-0.21177 v -0.69895 c 0,-0.11732 0.02786,-0.21177 0.06247,-0.21177 z" /><path
         id="path42"
         style="fill:none;fill-rule:evenodd;stroke:#28220b;stroke-width:0.366917"
         inkscape:transform-center-x="5.5244112e-06"
         inkscape:transform-center-y="0.46253101"
         d="m 60.658043,226.81453 -0.698094,-1.3876 -0.698094,-1.3876 h 1.396188 1.396176 l -0.698094,1.3876 z" /><path
         id="path43"
         style="fill:none;fill-rule:evenodd;stroke:#28220b;stroke-width:0.274"
         inkscape:transform-center-x="-0.4625316"
         inkscape:transform-center-y="5.8177811e-06"
         transform="matrix(1.4345425,0,0,1.2500343,16.884746,-22.175194)"
         d="m 30.492245,199.53535 -0.967276,0.55846 -0.967277,0.55846 v -1.11692 -1.11691 l 0.967277,0.55846 z" /><path
         id="path44"
         style="fill:none;fill-rule:evenodd;stroke:#28220b;stroke-width:0.274"
         inkscape:transform-center-x="0.46252952"
         inkscape:transform-center-y="5.8177811e-06"
         transform="matrix(-1.4345425,0,0,1.2500343,104.37352,-22.175194)"
         d="m 30.492245,199.53535 -0.967276,0.55846 -0.967277,0.55846 v -1.11692 -1.11691 l 0.967277,0.55846 z" /><path
         style="fill:#000000;fill-opacity:1;stroke:#1a1a1a;stroke-width:0.145774;stroke-dasharray:none"
         d="m 47.391837,218.04318 2.618752,0.0579 -0.176039,-0.48027 0.995415,0.64543 -1.030414,0.44614 0.177302,-0.3723 -2.600962,-0.0371 z"
         id="path45"
         sodipodi:nodetypes="cccccccc" /><path
         style="fill:#000000;fill-opacity:1;stroke:#1a1a1a;stroke-width:0.145774;stroke-dasharray:none"
         d="m 50.890368,227.03907 -2.618752,0.0579 0.176039,-0.48027 -0.995415,0.64543 1.030414,0.44614 -0.177302,-0.3723 2.600962,-0.0371 z"
         id="path46"
         sodipodi:nodetypes="cccccccc" /><g
         id="g48"
         transform="matrix(-1.1289075,0,0,0.99900848,233.57106,97.833191)"
         inkscape:label="mittapiste-paluuvesi"
         style="fill:#ffe680"><path
           id="path47"
           style="fill:#ffe680;stroke:#504416;stroke-width:0.15631"
           d="m 109.27806,124.54839 c 0,2.65769 -2.60817,4.81217 -5.82551,4.81217 -3.21734,0 -5.825504,-2.15448 -5.825502,-4.81217 5e-6,-2.65768 2.608172,-4.81216 5.825502,-4.81216 3.21734,0 5.82551,2.15447 5.82551,4.81216 z"
           sodipodi:nodetypes="sssss" /><path
           style="fill:#ffe680;fill-opacity:1;stroke:#504416;stroke-width:0.2;stroke-dasharray:none"
           d="m 109.27923,124.52535 5.9879,1e-5"
           id="path48"
           sodipodi:nodetypes="cc" /></g><path
         id="path49"
         style="fill:#ffffff;fill-opacity:1;stroke:#6c6753;stroke-width:0.512856;stroke-dasharray:none"
         d="m 69.054201,198.25895 c -5.26122,1.61747 -5.51676,1.50883 -5.51676,1.50883 l 5.31093,1.08672 -4.83976,2.43883 4.74372,1.39507 -4.7006,1.759 4.91622,1.19289 0.0431,0.0606 m -5.35025,-9.52287 h 5.61183 c 0.0701,0 0.12657,0.0529 0.12657,0.11867 v 9.54836 c 0,0.0658 -0.0565,0.11868 -0.12657,0.11868 h -5.61183 c -0.0701,0 -0.12656,-0.053 -0.12656,-0.11868 v -9.54836 c 0,-0.0657 0.0565,-0.11867 0.12656,-0.11867 z"
         inkscape:label="suodatin" /><path
         style="fill:#000000;fill-opacity:1;stroke:#0000ff;stroke-width:0.245667;stroke-dasharray:none"
         d="m 52.246169,179.78576 0.0975,4.41919 -0.80829,-0.29707 1.08626,1.67978 0.75085,-1.73884 -0.62658,0.2992 -0.0624,-4.38917 z"
         id="path50"
         sodipodi:nodetypes="cccccccc" /><path
         style="fill:#000000;fill-opacity:1;stroke:#0000ff;stroke-width:0.245667;stroke-dasharray:none"
         d="m 108.59159,168.40202 -4.41919,0.0975 0.29707,-0.80829 -1.67978,1.08626 1.73884,0.75085 -0.2992,-0.62658 4.38917,-0.0624 z"
         id="path51"
         sodipodi:nodetypes="cccccccc" /><g
         id="g55"
         inkscape:label="mittapiste kiertoilma"
         transform="matrix(1.1439324,0,0,0.99970382,-17.017345,0.05857087)"
         style="fill:#ffe680"><path
           id="path52"
           style="fill:#ffe680;stroke:#504416;stroke-width:0.15631"
           d="m 118.26985,184.55911 c 0,-2.65769 2.60817,-4.81217 5.82551,-4.81217 3.21734,0 5.8255,2.15448 5.8255,4.81217 -1e-5,2.65768 -2.60817,4.81216 -5.8255,4.81216 -3.21734,0 -5.82551,-2.15447 -5.82551,-4.81216 z"
           sodipodi:nodetypes="sssss" /><path
           style="fill:#ffe680;fill-opacity:1;stroke:#504416;stroke-width:0.235184;stroke-dasharray:none"
           d="m 124.1184,189.4738 -10e-6,8.28173"
           id="path53"
           sodipodi:nodetypes="cc" /></g><g
         id="g4"
         transform="translate(-11.873043)"
         style="fill:#c87137"
         inkscape:label="lto"><path
           id="rect4"
           style="fill:#c87137;stroke:#000000;stroke-width:0.579967"
           d="m 87.834673,132.17659 h 17.520267 c 0.10723,0 0.19356,0.0443 0.19356,0.0992 v 43.31869 c 0,0.055 -0.0864,0.0993 -0.19356,0.0993 H 87.834673 c -0.107229,0 -0.193555,-0.0443 -0.193555,-0.0993 v -43.31869 c 0,-0.055 0.08633,-0.0992 0.193555,-0.0992 z" /><path
           d="m 93.772732,136.70844 v -3.03031 h 0.401009 v 2.6727 h 1.492412 v 0.35761 z m 2.827731,0 v -2.67271 h -0.99839 v -0.3576 h 2.40192 v 0.3576 h -1.00252 v 2.67271 z m 1.61644,-1.47588 q 0,-0.75448 0.40514,-1.18029 0.40514,-0.42788 1.04593,-0.42788 0.419607,0 0.756537,0.2005 0.33693,0.20051 0.51263,0.56017 0.17777,0.35761 0.17777,0.81236 0,0.46095 -0.18603,0.82475 -0.18604,0.3638 -0.5271,0.55191 -0.34107,0.18603 -0.735877,0.18603 -0.42788,0 -0.76481,-0.2067 -0.33693,-0.20671 -0.51056,-0.56431 -0.17363,-0.3576 -0.17363,-0.75654 z m 0.41341,0.006 q 0,0.54777 0.29352,0.86403 0.29559,0.31419 0.74001,0.31419 0.452677,0 0.744137,-0.31833 0.29352,-0.31832 0.29352,-0.9033 0,-0.37 -0.12609,-0.64492 -0.12402,-0.27699 -0.36587,-0.42788 -0.239777,-0.15296 -0.539497,-0.15296 -0.42581,0 -0.73381,0.29352 -0.30592,0.29145 -0.30592,0.97565 z"
           id="text4"
           style="font-size:4.23333px;line-height:0;font-family:Arial;-inkscape-font-specification:'Arial, Normal';stroke:#000000;stroke-width:0.2;fill:#c87137"
           aria-label="LTO" /><g
           id="g6"
           transform="matrix(0.39177487,0,0,0.39177487,39.498967,52.303146)"
           inkscape:label="lto symboli"
           style="fill:#c87137"><path
             id="path5"
             style="fill:#c87137;stroke:#000000;stroke-width:0.2"
             d="m 160.66006,259.4144 a 14.923697,15.10794 0 0 1 -14.9237,15.10794 14.923697,15.10794 0 0 1 -14.9237,-15.10794 14.923697,15.10794 0 0 1 14.9237,-15.10794 14.923697,15.10794 0 0 1 14.9237,15.10794 z" /><path
             d="m 148.75416,240.88103 v -2.30066 h -2.2835 v -0.96147 h 2.2835 v -2.2835 h 0.97292 v 2.2835 h 2.28349 v 0.96147 h -2.28349 v 2.30066 z"
             id="text5"
             style="font-size:11.7208px;line-height:0;font-family:Arial;-inkscape-font-specification:'Arial, Normal';fill:#c87137;stroke:#000000;stroke-width:0.553738"
             transform="scale(0.93227742,1.0726421)"
             aria-label="+" /><path
             d="m 160.16457,245.54918 v -1.03587 h 3.16485 v 1.03587 z"
             id="text6"
             style="font-size:11.7208px;line-height:0;font-family:Arial;-inkscape-font-specification:'Arial, Normal';fill:#c87137;stroke:#000000;stroke-width:0.553738"
             transform="scale(0.93227742,1.0726421)"
             aria-label="-" /><path
             style="fill:#c87137;fill-opacity:1;stroke:#000000;stroke-width:0.202188;stroke-dasharray:none"
             d="m 134.18876,269.0266 c 21.33406,-20.94321 21.33406,-20.94321 21.33406,-20.94321"
             id="path6" /></g></g><path
         id="path27"
         style="fill:#c87137;stroke:#000000;stroke-width:0.440099"
         d="m 75.893208,195.34945 h 17.657111 c 0.108068,0 0.195072,0.0253 0.195072,0.0567 v 24.75084 c 0,0.0314 -0.08707,0.0567 -0.195072,0.0567 H 75.893208 c -0.108067,0 -0.195067,-0.0253 -0.195067,-0.0567 v -24.75084 c 0,-0.0314 0.087,-0.0567 0.195067,-0.0567 z" /><path
         d="m 78.253903,198.06363 v -1.6257 h 0.215133 v 1.43385 h 0.800652 v 0.19185 z m 2.014936,-0.14527 q -0.110894,0.0943 -0.214025,0.13307 -0.102022,0.0388 -0.219569,0.0388 -0.194064,0 -0.298304,-0.0943 -0.10424,-0.0954 -0.10424,-0.24285 0,-0.0865 0.03881,-0.15747 0.03992,-0.0721 0.103131,-0.11533 0.06432,-0.0433 0.144162,-0.0654 0.05877,-0.0155 0.177429,-0.0299 0.241748,-0.0288 0.355969,-0.0687 0.0011,-0.041 0.0011,-0.0521 0,-0.12199 -0.05656,-0.17189 -0.07652,-0.0676 -0.227332,-0.0676 -0.140835,0 -0.20848,0.0499 -0.06654,0.0488 -0.0987,0.1741 l -0.195173,-0.0266 q 0.02661,-0.12531 0.08761,-0.20183 0.06099,-0.0776 0.176321,-0.11866 0.115329,-0.0421 0.267254,-0.0421 0.150815,0 0.245074,0.0355 0.09426,0.0355 0.138617,0.0898 0.04436,0.0532 0.0621,0.13529 0.01,0.051 0.01,0.18409 v 0.26614 q 0,0.27835 0.0122,0.35264 0.01331,0.0732 0.05101,0.14084 h -0.208479 q -0.03105,-0.0621 -0.03992,-0.14527 z m -0.01663,-0.44579 q -0.108676,0.0444 -0.326027,0.0754 -0.123092,0.0178 -0.174103,0.0399 -0.05101,0.0222 -0.07874,0.0654 -0.02772,0.0421 -0.02772,0.0943 0,0.0798 0.05988,0.13307 0.06099,0.0532 0.177429,0.0532 0.11533,0 0.205153,-0.0499 0.08982,-0.051 0.131964,-0.13862 0.03216,-0.0676 0.03216,-0.1996 z m -0.587736,-0.81729 v -0.22733 h 0.20848 v 0.22733 z m 0.413633,0 v -0.22733 h 0.20848 v 0.22733 z m 0.685322,1.40835 v -1.17769 h 0.178539 v 0.16523 q 0.05545,-0.0865 0.147488,-0.13862 0.09204,-0.0532 0.209589,-0.0532 0.130854,0 0.214025,0.0543 0.08428,0.0543 0.118656,0.15193 0.139726,-0.20626 0.363731,-0.20626 0.175211,0 0.269471,0.0976 0.09426,0.0965 0.09426,0.29831 v 0.80841 h -0.198499 v -0.74188 q 0,-0.11976 -0.01996,-0.17188 -0.01885,-0.0532 -0.06986,-0.0854 -0.05101,-0.0322 -0.119765,-0.0322 -0.124201,0 -0.206262,0.0832 -0.08206,0.0821 -0.08206,0.26393 v 0.68421 h -0.199609 v -0.76517 q 0,-0.13307 -0.04879,-0.1996 -0.04879,-0.0665 -0.159686,-0.0665 -0.08428,0 -0.15636,0.0444 -0.07097,0.0443 -0.103131,0.12974 -0.03216,0.0854 -0.03216,0.24619 v 0.61102 z m 1.891844,0.45134 v -1.62903 h 0.181866 v 0.15303 q 0.06432,-0.0898 0.14527,-0.13418 0.08095,-0.0455 0.196282,-0.0455 0.150815,0 0.266144,0.0776 0.11533,0.0776 0.174103,0.21957 0.05877,0.14083 0.05877,0.30939 0,0.18076 -0.06543,0.32603 -0.06432,0.14416 -0.18852,0.22179 -0.123091,0.0765 -0.25949,0.0765 -0.09981,0 -0.179648,-0.0421 -0.07873,-0.0421 -0.129745,-0.10645 v 0.57332 z m 0.180757,-1.03353 q 0,0.22733 0.09204,0.33601 0.09204,0.10867 0.222896,0.10867 0.133073,0 0.227332,-0.112 0.09537,-0.11311 0.09537,-0.34932 0,-0.22511 -0.09315,-0.33711 -0.09204,-0.112 -0.220678,-0.112 -0.127528,0 -0.226223,0.11976 -0.09759,0.11866 -0.09759,0.34599 z m 1.008022,-0.007 q 0,-0.32713 0.181866,-0.4846 0.151924,-0.13085 0.370384,-0.13085 0.242857,0 0.396999,0.15968 0.154142,0.15858 0.154142,0.43914 0,0.22733 -0.06875,0.35819 -0.06765,0.12974 -0.198499,0.20182 -0.129746,0.0721 -0.283888,0.0721 -0.247293,0 -0.400326,-0.15857 -0.151924,-0.15858 -0.151924,-0.45689 z m 0.205153,0 q 0,0.22623 0.0987,0.33934 0.09869,0.112 0.248401,0.112 0.148597,0 0.247293,-0.11311 0.09869,-0.11311 0.09869,-0.34488 0,-0.21846 -0.0998,-0.33046 -0.0987,-0.11311 -0.246184,-0.11311 -0.149706,0 -0.248401,0.112 -0.0987,0.112 -0.0987,0.33822 z m 0.03549,-0.8195 v -0.22733 h 0.20848 v 0.22733 z m 0.413633,0 v -0.22733 h 0.20848 v 0.22733 z m 0.683105,1.85969 v -1.62903 h 0.181865 v 0.15303 q 0.06432,-0.0898 0.145271,-0.13418 0.08095,-0.0455 0.196281,-0.0455 0.150815,0 0.266145,0.0776 0.115329,0.0776 0.174103,0.21957 0.05877,0.14083 0.05877,0.30939 0,0.18076 -0.06543,0.32603 -0.06432,0.14416 -0.188519,0.22179 -0.123092,0.0765 -0.259491,0.0765 -0.0998,0 -0.179648,-0.0421 -0.07873,-0.0421 -0.129745,-0.10645 v 0.57332 z m 0.180756,-1.03353 q 0,0.22733 0.09204,0.33601 0.09204,0.10867 0.222896,0.10867 0.133072,0 0.227332,-0.112 0.09537,-0.11311 0.09537,-0.34932 0,-0.22511 -0.09315,-0.33711 -0.09204,-0.112 -0.220678,-0.112 -0.127527,0 -0.226223,0.11976 -0.09759,0.11866 -0.09759,0.34599 z m 1.850814,0.43692 q -0.110894,0.0943 -0.214025,0.13307 -0.102022,0.0388 -0.219569,0.0388 -0.194064,0 -0.298304,-0.0943 -0.10424,-0.0954 -0.10424,-0.24285 0,-0.0865 0.03881,-0.15747 0.03992,-0.0721 0.103131,-0.11533 0.06432,-0.0433 0.144162,-0.0654 0.05877,-0.0155 0.177429,-0.0299 0.241748,-0.0288 0.355969,-0.0687 0.0011,-0.041 0.0011,-0.0521 0,-0.12199 -0.05656,-0.17189 -0.07652,-0.0676 -0.227332,-0.0676 -0.140835,0 -0.20848,0.0499 -0.06654,0.0488 -0.09869,0.1741 l -0.195173,-0.0266 q 0.02662,-0.12531 0.08761,-0.20183 0.06099,-0.0776 0.176321,-0.11866 0.115329,-0.0421 0.267253,-0.0421 0.150816,0 0.245075,0.0355 0.09426,0.0355 0.138617,0.0898 0.04436,0.0532 0.0621,0.13529 0.01,0.051 0.01,0.18409 v 0.26614 q 0,0.27835 0.0122,0.35264 0.01331,0.0732 0.05101,0.14084 h -0.20848 q -0.03105,-0.0621 -0.03992,-0.14527 z m -0.01663,-0.44579 q -0.108676,0.0444 -0.326027,0.0754 -0.123092,0.0178 -0.174103,0.0399 -0.05101,0.0222 -0.07873,0.0654 -0.02772,0.0421 -0.02772,0.0943 0,0.0798 0.05988,0.13307 0.06099,0.0532 0.17743,0.0532 0.115329,0 0.205153,-0.0499 0.08982,-0.051 0.131964,-0.13862 0.03216,-0.0676 0.03216,-0.1996 z m 0.947031,0.41252 0.02883,0.17632 q -0.08428,0.0177 -0.150815,0.0177 -0.108676,0 -0.168558,-0.0344 -0.05988,-0.0344 -0.08428,-0.0898 -0.0244,-0.0565 -0.0244,-0.2362 v -0.67756 h -0.14638 v -0.15525 h 0.14638 v -0.29165 l 0.198499,-0.11977 v 0.41142 h 0.200718 v 0.15525 h -0.200718 v 0.68865 q 0,0.0854 0.01,0.10978 0.01109,0.0244 0.03438,0.0388 0.0244,0.0144 0.06875,0.0144 0.03327,0 0.08761,-0.008 z m 0.630984,0 0.02883,0.17632 q -0.08428,0.0177 -0.150815,0.0177 -0.108676,0 -0.168558,-0.0344 -0.05988,-0.0344 -0.08428,-0.0898 -0.0244,-0.0565 -0.0244,-0.2362 v -0.67756 h -0.146379 v -0.15525 h 0.146379 v -0.29165 l 0.1985,-0.11977 v 0.41142 h 0.200717 v 0.15525 h -0.200717 v 0.68865 q 0,0.0854 0.01,0.10978 0.01109,0.0244 0.03438,0.0388 0.0244,0.0144 0.06875,0.0144 0.03327,0 0.08761,-0.008 z m 1.001369,-0.20072 0.206262,0.0255 q -0.04879,0.18076 -0.180757,0.28056 -0.131963,0.0998 -0.337116,0.0998 -0.258382,0 -0.410306,-0.15857 -0.150815,-0.15969 -0.150815,-0.44691 0,-0.29719 0.153033,-0.46131 0.153033,-0.16412 0.396999,-0.16412 0.236203,0 0.385909,0.16079 0.149706,0.1608 0.149706,0.45245 0,0.0177 -0.0011,0.0532 h -0.878277 q 0.01109,0.19406 0.109784,0.29719 0.09869,0.10313 0.246184,0.10313 0.109785,0 0.18741,-0.0577 0.07762,-0.0577 0.123092,-0.18409 z m -0.655381,-0.3227 h 0.657599 q -0.01331,-0.14859 -0.07541,-0.22289 -0.09537,-0.11533 -0.247293,-0.11533 -0.137508,0 -0.231767,0.092 -0.09315,0.092 -0.103131,0.24618 z m 1.110044,0.70196 v -1.17769 h 0.179647 v 0.17854 q 0.06875,-0.12531 0.126419,-0.16523 0.05877,-0.0399 0.128636,-0.0399 0.100913,0 0.205153,0.0643 l -0.06875,0.1852 q -0.07319,-0.0433 -0.146379,-0.0433 -0.06543,0 -0.117547,0.0399 -0.05212,0.0388 -0.0743,0.10867 -0.03327,0.10646 -0.03327,0.23288 v 0.61657 z m 0.759621,-1.39615 v -0.22955 h 0.199608 v 0.22955 z m 0,1.39615 v -1.17769 h 0.199608 v 1.17769 z"
         id="text28"
         style="font-size:2.2711px;line-height:0;font-family:Arial;-inkscape-font-specification:'Arial, Normal';fill-rule:evenodd;stroke:#000000;stroke-width:0.107296"
         aria-label="Lämpöpatteri" /><path
         id="path28"
         style="fill:none;stroke:#000000;stroke-width:0.078355"
         d="m 90.568497,208.19664 a 5.8467293,5.9189111 0 0 1 -5.846731,5.91891 5.8467293,5.9189111 0 0 1 -5.84673,-5.91891 5.8467293,5.9189111 0 0 1 5.84673,-5.91891 5.8467293,5.9189111 0 0 1 5.846731,5.91891 z" /><path
         d="m 84.403451,210.13014 v -1.60427 h -1.494226 v -0.67043 h 1.494226 v -1.59229 h 0.636638 v 1.59229 h 1.494218 v 0.67043 h -1.494218 v 1.60427 z"
         id="path29"
         style="font-size:11.7208px;line-height:0;font-family:Arial;-inkscape-font-specification:'Arial, Normal';fill:none;stroke:#000000;stroke-width:0.274;stroke-dasharray:none"
         aria-label="+" /><path
         d="m 133.89534,201.56425 v -1.62569 h 0.21514 v 0.80619 l 0.8073,-0.80619 h 0.29165 l -0.68199,0.6587 0.71193,0.96699 h -0.28388 l -0.57887,-0.82283 -0.26614,0.2595 v 0.56333 z m 1.49929,-1.39615 v -0.22954 h 0.1996 v 0.22954 z m 0,1.39615 v -1.17768 h 0.1996 v 1.17768 z m 1.30965,-0.37925 0.20626,0.0255 q -0.0488,0.18076 -0.18076,0.28057 -0.13196,0.0998 -0.33711,0.0998 -0.25838,0 -0.41031,-0.15858 -0.15081,-0.15969 -0.15081,-0.4469 0,-0.29719 0.15303,-0.46132 0.15303,-0.16412 0.397,-0.16412 0.2362,0 0.38591,0.1608 0.1497,0.16079 0.1497,0.45244 0,0.0178 -0.001,0.0532 h -0.87827 q 0.0111,0.19406 0.10978,0.2972 0.0987,0.10313 0.24619,0.10313 0.10978,0 0.18741,-0.0577 0.0776,-0.0577 0.12309,-0.18408 z m -0.65538,-0.3227 h 0.6576 q -0.0133,-0.1486 -0.0754,-0.2229 -0.0954,-0.11533 -0.24729,-0.11533 -0.13751,0 -0.23177,0.092 -0.0932,0.0921 -0.10313,0.24619 z m 1.11004,0.70195 v -1.17768 h 0.17965 v 0.17853 q 0.0687,-0.12531 0.12642,-0.16523 0.0588,-0.0399 0.12863,-0.0399 0.10092,0 0.20516,0.0643 l -0.0688,0.18519 q -0.0732,-0.0433 -0.14638,-0.0433 -0.0654,0 -0.11754,0.0399 -0.0521,0.0388 -0.0743,0.10868 -0.0333,0.10646 -0.0333,0.23288 v 0.61656 z m 1.19433,-0.17853 0.0288,0.17632 q -0.0843,0.0177 -0.15082,0.0177 -0.10867,0 -0.16856,-0.0344 -0.0599,-0.0344 -0.0843,-0.0898 -0.0244,-0.0566 -0.0244,-0.2362 v -0.67756 h -0.14638 v -0.15525 h 0.14638 v -0.29165 l 0.1985,-0.11977 v 0.41142 h 0.20072 v 0.15525 h -0.20072 v 0.68865 q 0,0.0854 0.01,0.10978 0.0111,0.0244 0.0344,0.0388 0.0244,0.0144 0.0687,0.0144 0.0333,0 0.0876,-0.008 z m 0.12087,-0.41031 q 0,-0.32714 0.18186,-0.4846 0.15193,-0.13086 0.37039,-0.13086 0.24286,0 0.397,0.15969 0.15414,0.15858 0.15414,0.43914 0,0.22733 -0.0687,0.35818 -0.0677,0.12975 -0.1985,0.20183 -0.12975,0.0721 -0.28389,0.0721 -0.24729,0 -0.40033,-0.15858 -0.15192,-0.15858 -0.15192,-0.45688 z m 0.20515,0 q 0,0.22622 0.0987,0.33933 0.0987,0.11201 0.2484,0.11201 0.1486,0 0.24729,-0.11311 0.0987,-0.11312 0.0987,-0.34488 0,-0.21846 -0.0998,-0.33047 -0.0987,-0.11311 -0.24618,-0.11311 -0.14971,0 -0.2484,0.112 -0.0987,0.11201 -0.0987,0.33823 z m 1.13333,-0.80731 v -0.22954 h 0.19961 v 0.22954 z m 0,1.39615 v -1.17768 h 0.19961 v 1.17768 z m 0.49903,0 v -1.62569 h 0.1996 v 1.62569 z m 0.509,0 v -1.17768 h 0.17854 v 0.16523 q 0.0554,-0.0865 0.14748,-0.13862 0.0921,-0.0532 0.20959,-0.0532 0.13086,0 0.21403,0.0543 0.0843,0.0543 0.11865,0.15192 0.13973,-0.20626 0.36373,-0.20626 0.17522,0 0.26948,0.0976 0.0943,0.0965 0.0943,0.2983 v 0.80841 h -0.19849 v -0.74187 q 0,-0.11977 -0.02,-0.17189 -0.0188,-0.0532 -0.0699,-0.0854 -0.051,-0.0322 -0.11976,-0.0322 -0.1242,0 -0.20627,0.0832 -0.0821,0.0821 -0.0821,0.26393 v 0.68421 h -0.1996 v -0.76516 q 0,-0.13307 -0.0488,-0.19961 -0.0488,-0.0665 -0.15968,-0.0665 -0.0843,0 -0.15636,0.0444 -0.071,0.0444 -0.10314,0.12975 -0.0322,0.0854 -0.0322,0.24618 v 0.61102 z m 2.66033,-0.14527 q -0.11089,0.0943 -0.21402,0.13308 -0.10202,0.0388 -0.21957,0.0388 -0.19406,0 -0.2983,-0.0943 -0.10424,-0.0954 -0.10424,-0.24286 0,-0.0865 0.0388,-0.15747 0.0399,-0.0721 0.10313,-0.11533 0.0643,-0.0432 0.14416,-0.0654 0.0588,-0.0155 0.17743,-0.0299 0.24175,-0.0288 0.35597,-0.0688 0.001,-0.041 0.001,-0.0521 0,-0.12198 -0.0566,-0.17188 -0.0765,-0.0676 -0.22733,-0.0676 -0.14083,0 -0.20848,0.0499 -0.0665,0.0488 -0.0987,0.17411 l -0.19518,-0.0266 q 0.0266,-0.12531 0.0876,-0.20182 0.061,-0.0776 0.17632,-0.11866 0.11533,-0.0421 0.26725,-0.0421 0.15082,0 0.24508,0.0355 0.0943,0.0355 0.13861,0.0898 0.0444,0.0532 0.0621,0.13529 0.01,0.051 0.01,0.18408 v 0.26615 q 0,0.27834 0.0122,0.35264 0.0133,0.0732 0.051,0.14083 h -0.20848 q -0.0311,-0.0621 -0.0399,-0.14527 z m -0.0166,-0.44579 q -0.10868,0.0444 -0.32603,0.0754 -0.12309,0.0177 -0.1741,0.0399 -0.051,0.0222 -0.0787,0.0654 -0.0277,0.0421 -0.0277,0.0943 0,0.0798 0.0599,0.13307 0.061,0.0532 0.17743,0.0532 0.11533,0 0.20516,-0.0499 0.0898,-0.051 0.13196,-0.13862 0.0322,-0.0676 0.0322,-0.19961 z m 1.1422,0.59106 v -1.62569 h 0.19961 v 0.5833 q 0.13973,-0.16191 0.35264,-0.16191 0.13086,0 0.22733,0.0521 0.0965,0.051 0.13751,0.14194 0.0421,0.0909 0.0421,0.26393 v 0.74631 h -0.19961 v -0.74631 q 0,-0.14971 -0.0654,-0.21735 -0.0643,-0.0688 -0.18298,-0.0688 -0.0887,0 -0.16745,0.0466 -0.0776,0.0455 -0.11089,0.1242 -0.0333,0.0787 -0.0333,0.21735 v 0.64429 z m 2.0349,0 v -0.17299 q -0.13751,0.19961 -0.37371,0.19961 -0.10424,0 -0.19517,-0.0399 -0.0898,-0.0399 -0.13419,-0.0998 -0.0432,-0.061 -0.061,-0.14859 -0.0122,-0.0588 -0.0122,-0.18631 v -0.72967 h 0.19961 v 0.65316 q 0,0.15636 0.0122,0.2107 0.0189,0.0787 0.0798,0.1242 0.061,0.0444 0.15082,0.0444 0.0898,0 0.16856,-0.0455 0.0787,-0.0466 0.11089,-0.12531 0.0333,-0.0798 0.0333,-0.23066 v -0.63098 h 0.19961 v 1.17768 z m 0.41696,-0.58884 q 0,-0.32714 0.18186,-0.4846 0.15193,-0.13086 0.37039,-0.13086 0.24286,0 0.397,0.15969 0.15414,0.15858 0.15414,0.43914 0,0.22733 -0.0687,0.35818 -0.0677,0.12975 -0.1985,0.20183 -0.12975,0.0721 -0.28389,0.0721 -0.24729,0 -0.40033,-0.15858 -0.15192,-0.15858 -0.15192,-0.45688 z m 0.20515,0 q 0,0.22622 0.0987,0.33933 0.0987,0.11201 0.2484,0.11201 0.1486,0 0.24729,-0.11311 0.0987,-0.11312 0.0987,-0.34488 0,-0.21846 -0.0998,-0.33047 -0.0987,-0.11311 -0.24618,-0.11311 -0.14971,0 -0.2484,0.112 -0.0987,0.11201 -0.0987,0.33823 z m 1.13223,0.58884 v -1.17768 h 0.17964 v 0.16744 q 0.12975,-0.19406 0.37482,-0.19406 0.10646,0 0.19518,0.0388 0.0898,0.0377 0.13418,0.0998 0.0444,0.0621 0.0621,0.14749 0.0111,0.0554 0.0111,0.19406 v 0.72413 h -0.19961 v -0.71637 q 0,-0.12198 -0.0233,-0.18186 -0.0233,-0.061 -0.0832,-0.0965 -0.0588,-0.0366 -0.13862,-0.0366 -0.12752,0 -0.22067,0.081 -0.0921,0.081 -0.0921,0.30717 v 0.64318 z m 2.06927,-0.37925 0.20626,0.0255 q -0.0488,0.18076 -0.18075,0.28057 -0.13197,0.0998 -0.33712,0.0998 -0.25838,0 -0.41031,-0.15858 -0.15081,-0.15969 -0.15081,-0.4469 0,-0.29719 0.15303,-0.46132 0.15303,-0.16412 0.397,-0.16412 0.2362,0 0.38591,0.1608 0.14971,0.16079 0.14971,0.45244 0,0.0178 -0.001,0.0532 h -0.87828 q 0.0111,0.19406 0.10978,0.2972 0.0987,0.10313 0.24619,0.10313 0.10978,0 0.18741,-0.0577 0.0776,-0.0577 0.12309,-0.18408 z m -0.65538,-0.3227 h 0.6576 q -0.0133,-0.1486 -0.0754,-0.2229 -0.0954,-0.11533 -0.24729,-0.11533 -0.13751,0 -0.23177,0.092 -0.0932,0.0921 -0.10313,0.24619 z m 1.11337,-0.6942 v -0.22954 h 0.19961 v 0.22954 z m 0,1.39615 v -1.17768 h 0.19961 v 1.17768 z m 0.42361,-0.35153 0.19739,-0.031 q 0.0166,0.11866 0.0921,0.18187 0.0765,0.0632 0.21291,0.0632 0.13751,0 0.20405,-0.0555 0.0665,-0.0566 0.0665,-0.13196 0,-0.0676 -0.0588,-0.10646 -0.041,-0.0266 -0.20405,-0.0676 -0.21957,-0.0554 -0.30495,-0.0954 -0.0843,-0.041 -0.12864,-0.11201 -0.0433,-0.0721 -0.0433,-0.15857 0,-0.0787 0.0355,-0.14528 0.0366,-0.0676 0.0987,-0.112 0.0466,-0.0344 0.12642,-0.0577 0.081,-0.0244 0.17299,-0.0244 0.13862,0 0.24286,0.0399 0.10535,0.0399 0.15525,0.10868 0.0499,0.0676 0.0688,0.18186 l -0.19518,0.0266 q -0.0133,-0.0909 -0.0776,-0.14195 -0.0632,-0.051 -0.17965,-0.051 -0.13751,0 -0.19628,0.0455 -0.0588,0.0455 -0.0588,0.10646 0,0.0388 0.0244,0.0699 0.0244,0.0322 0.0765,0.0532 0.0299,0.0111 0.17632,0.051 0.21181,0.0566 0.29498,0.0932 0.0843,0.0355 0.13196,0.10424 0.0477,0.0687 0.0477,0.17078 0,0.0998 -0.0588,0.18852 -0.0577,0.0876 -0.16745,0.13639 -0.10978,0.0477 -0.2484,0.0477 -0.22955,0 -0.35042,-0.0954 -0.11977,-0.0954 -0.15304,-0.28278 z m 1.2165,-1.04462 v -0.22954 h 0.19961 v 0.22954 z m 0,1.39615 v -1.17768 h 0.19961 v 1.17768 z m 0.50457,-1.39615 v -0.22954 h 0.19961 v 0.22954 z m 0,1.39615 v -1.17768 h 0.19961 v 1.17768 z m 0.50346,0 v -1.17768 h 0.17965 v 0.16744 q 0.12974,-0.19406 0.37482,-0.19406 0.10645,0 0.19517,0.0388 0.0898,0.0377 0.13418,0.0998 0.0444,0.0621 0.0621,0.14749 0.0111,0.0554 0.0111,0.19406 v 0.72413 h -0.19961 v -0.71637 q 0,-0.12198 -0.0233,-0.18186 -0.0233,-0.061 -0.0832,-0.0965 -0.0588,-0.0366 -0.13861,-0.0366 -0.12753,0 -0.22068,0.081 -0.092,0.081 -0.092,0.30717 v 0.64318 z"
         id="text55"
         style="font-size:2.2711px;line-height:0;font-family:Arial;-inkscape-font-specification:'Arial, Normal';fill-rule:evenodd;stroke:#000000;stroke-width:0.107296"
         aria-label="Kiertoilma huoneisiin" /><path
         d="m 42.349514,223.2598 v -1.6257 h 0.215134 v 0.80619 l 0.807305,-0.80619 h 0.29165 l -0.681995,0.6587 0.711936,0.967 h -0.283887 l -0.578864,-0.82283 -0.266145,0.25949 v 0.56334 z m 2.266665,-0.14527 q -0.110894,0.0943 -0.214025,0.13307 -0.102022,0.0388 -0.219569,0.0388 -0.194064,0 -0.298304,-0.0943 -0.10424,-0.0954 -0.10424,-0.24286 0,-0.0865 0.03881,-0.15746 0.03992,-0.0721 0.103131,-0.11533 0.06432,-0.0433 0.144162,-0.0654 0.05877,-0.0155 0.177429,-0.0299 0.241748,-0.0288 0.355969,-0.0688 0.0011,-0.041 0.0011,-0.0521 0,-0.12198 -0.05656,-0.17188 -0.07652,-0.0676 -0.227332,-0.0676 -0.140835,0 -0.20848,0.0499 -0.06654,0.0488 -0.09869,0.1741 l -0.195173,-0.0266 q 0.02661,-0.12531 0.08761,-0.20182 0.06099,-0.0776 0.176321,-0.11866 0.115329,-0.0421 0.267254,-0.0421 0.150815,0 0.245074,0.0355 0.09426,0.0355 0.138617,0.0898 0.04436,0.0532 0.0621,0.13529 0.01,0.051 0.01,0.18409 v 0.26614 q 0,0.27834 0.0122,0.35264 0.01331,0.0732 0.05101,0.14084 H 44.6561 q -0.03105,-0.0621 -0.03992,-0.14527 z m -0.01663,-0.4458 q -0.108676,0.0444 -0.326027,0.0754 -0.123092,0.0177 -0.174103,0.0399 -0.05101,0.0222 -0.07874,0.0654 -0.02772,0.0421 -0.02772,0.0943 0,0.0798 0.05988,0.13307 0.06099,0.0532 0.177429,0.0532 0.11533,0 0.205153,-0.0499 0.08982,-0.051 0.131964,-0.13862 0.03216,-0.0676 0.03216,-0.19961 z m 1.283038,0.59107 v -0.173 q -0.137508,0.19961 -0.373711,0.19961 -0.10424,0 -0.195173,-0.0399 -0.08982,-0.0399 -0.134181,-0.0998 -0.04325,-0.061 -0.06099,-0.14859 -0.0122,-0.0588 -0.0122,-0.1863 v -0.72968 h 0.199609 v 0.65316 q 0,0.15636 0.0122,0.2107 0.01885,0.0787 0.07984,0.1242 0.06099,0.0444 0.150816,0.0444 0.08982,0 0.168558,-0.0455 0.07873,-0.0466 0.110893,-0.12531 0.03327,-0.0798 0.03327,-0.23066 v -0.63098 h 0.199609 v 1.17769 z m 0.492368,0 v -1.6257 h 0.199608 v 0.92707 l 0.472407,-0.47906 h 0.258382 l -0.450228,0.43692 0.495694,0.74077 H 47.10463 l -0.389236,-0.60216 -0.140835,0.13529 v 0.46687 z m 1.060142,-0.58885 q 0,-0.32713 0.181865,-0.4846 0.151925,-0.13086 0.370385,-0.13086 0.242857,0 0.396999,0.15969 0.154142,0.15858 0.154142,0.43914 0,0.22733 -0.06875,0.35818 -0.06764,0.12975 -0.1985,0.20183 -0.129745,0.0721 -0.283887,0.0721 -0.247293,0 -0.400326,-0.15858 -0.151924,-0.15857 -0.151924,-0.45688 z m 0.205153,0 q 0,0.22622 0.09869,0.33934 0.0987,0.112 0.248402,0.112 0.148597,0 0.247293,-0.11311 0.09869,-0.11311 0.09869,-0.34488 0,-0.21846 -0.0998,-0.33047 -0.0987,-0.11311 -0.246184,-0.11311 -0.149706,0 -0.248402,0.11201 -0.09869,0.112 -0.09869,0.33822 z m 1.127788,0.58885 v -1.6257 h 0.199608 v 1.6257 z m 1.277494,-0.14527 q -0.110894,0.0943 -0.214025,0.13307 -0.102022,0.0388 -0.219569,0.0388 -0.194064,0 -0.298304,-0.0943 -0.10424,-0.0954 -0.10424,-0.24286 0,-0.0865 0.03881,-0.15746 0.03992,-0.0721 0.103131,-0.11533 0.06432,-0.0433 0.144161,-0.0654 0.05877,-0.0155 0.17743,-0.0299 0.241748,-0.0288 0.355968,-0.0688 0.0011,-0.041 0.0011,-0.0521 0,-0.12198 -0.05656,-0.17188 -0.07652,-0.0676 -0.227332,-0.0676 -0.140835,0 -0.20848,0.0499 -0.06654,0.0488 -0.09869,0.1741 l -0.195173,-0.0266 q 0.02661,-0.12531 0.08761,-0.20182 0.06099,-0.0776 0.176321,-0.11866 0.115329,-0.0421 0.267253,-0.0421 0.150815,0 0.245075,0.0355 0.09426,0.0355 0.138617,0.0898 0.04436,0.0532 0.0621,0.13529 0.01,0.051 0.01,0.18409 v 0.26614 q 0,0.27834 0.0122,0.35264 0.01331,0.0732 0.05101,0.14084 h -0.20848 q -0.03105,-0.0621 -0.03992,-0.14527 z m -0.01664,-0.4458 q -0.108675,0.0444 -0.326027,0.0754 -0.123091,0.0177 -0.174102,0.0399 -0.05101,0.0222 -0.07874,0.0654 -0.02772,0.0421 -0.02772,0.0943 0,0.0798 0.05988,0.13307 0.06099,0.0532 0.17743,0.0532 0.115329,0 0.205153,-0.0499 0.08982,-0.051 0.131963,-0.13862 0.03216,-0.0676 0.03216,-0.19961 z m -0.587735,-0.81728 v -0.22733 h 0.20848 v 0.22733 z m 0.413633,0 v -0.22733 h 0.208479 v 0.22733 z m 0.685322,1.40835 v -1.17769 h 0.178539 v 0.16523 q 0.05545,-0.0865 0.147488,-0.13862 0.09204,-0.0532 0.209589,-0.0532 0.130854,0 0.214024,0.0543 0.08428,0.0543 0.118656,0.15192 0.139726,-0.20626 0.363731,-0.20626 0.175212,0 0.269472,0.0976 0.09426,0.0965 0.09426,0.2983 v 0.80842 h -0.198499 v -0.74188 q 0,-0.11977 -0.01996,-0.17189 -0.01885,-0.0532 -0.06986,-0.0854 -0.05101,-0.0322 -0.119765,-0.0322 -0.124201,0 -0.206262,0.0832 -0.08206,0.0821 -0.08206,0.26392 v 0.68422 h -0.199609 v -0.76517 q 0,-0.13307 -0.04879,-0.19961 -0.04879,-0.0665 -0.159687,-0.0665 -0.08428,0 -0.15636,0.0444 -0.07097,0.0444 -0.103131,0.12975 -0.03216,0.0854 -0.03216,0.24618 v 0.61103 z m 1.891844,0.45133 v -1.62902 h 0.181865 v 0.15303 q 0.06432,-0.0898 0.145271,-0.13418 0.08095,-0.0455 0.196281,-0.0455 0.150816,0 0.266145,0.0776 0.115329,0.0776 0.174103,0.21957 0.05877,0.14083 0.05877,0.30939 0,0.18076 -0.06543,0.32603 -0.06432,0.14416 -0.188519,0.22178 -0.123092,0.0765 -0.259491,0.0765 -0.0998,0 -0.179647,-0.0421 -0.07874,-0.0421 -0.129746,-0.10646 v 0.57332 z m 0.180756,-1.03353 q 0,0.22734 0.09204,0.33601 0.09204,0.10868 0.222896,0.10868 0.133072,0 0.227332,-0.112 0.09537,-0.11312 0.09537,-0.34932 0,-0.22511 -0.09315,-0.33712 -0.09204,-0.112 -0.220679,-0.112 -0.127527,0 -0.226222,0.11977 -0.09759,0.11865 -0.09759,0.34598 z m 1.008023,-0.007 q 0,-0.32713 0.181865,-0.4846 0.151924,-0.13086 0.370385,-0.13086 0.242857,0 0.396999,0.15969 0.154142,0.15858 0.154142,0.43914 0,0.22733 -0.06875,0.35818 -0.06764,0.12975 -0.1985,0.20183 -0.129745,0.0721 -0.283887,0.0721 -0.247293,0 -0.400326,-0.15858 -0.151924,-0.15857 -0.151924,-0.45688 z m 0.205153,0 q 0,0.22622 0.0987,0.33934 0.09869,0.112 0.248402,0.112 0.148597,0 0.247292,-0.11311 0.0987,-0.11311 0.0987,-0.34488 0,-0.21846 -0.09981,-0.33047 -0.09869,-0.11311 -0.246183,-0.11311 -0.149707,0 -0.248402,0.11201 -0.0987,0.112 -0.0987,0.33822 z m 0.03549,-0.8195 v -0.22733 h 0.20848 v 0.22733 z m 0.413633,0 v -0.22733 h 0.20848 v 0.22733 z"
         id="text56"
         style="font-size:2.2711px;line-height:0;font-family:Arial;-inkscape-font-specification:'Arial, Normal';fill-rule:evenodd;stroke:#000000;stroke-width:0.107296"
         aria-label="Kaukolämpö" /><path
         d="m 43.809302,135.60519 v -1.6257 h 0.613242 q 0.161904,0 0.247292,0.0155 0.119765,0.02 0.200718,0.0765 0.08095,0.0554 0.129745,0.15636 0.0499,0.10091 0.0499,0.22178 0,0.20737 -0.131963,0.35154 -0.131964,0.14305 -0.476842,0.14305 h -0.41696 v 0.66092 z m 0.215134,-0.85277 h 0.420286 q 0.20848,0 0.296086,-0.0776 0.08761,-0.0776 0.08761,-0.21846 0,-0.10203 -0.05212,-0.17411 -0.05101,-0.0732 -0.13529,-0.0965 -0.05434,-0.0144 -0.200717,-0.0144 h -0.415851 z m 1.199868,0.26393 q 0,-0.32714 0.181866,-0.48461 0.151924,-0.13085 0.370384,-0.13085 0.242857,0 0.396999,0.15969 0.154142,0.15857 0.154142,0.43914 0,0.22733 -0.06875,0.35818 -0.06764,0.12975 -0.1985,0.20183 -0.129745,0.0721 -0.283887,0.0721 -0.247293,0 -0.400326,-0.15858 -0.151924,-0.15858 -0.151924,-0.45688 z m 0.205153,0 q 0,0.22622 0.09869,0.33933 0.0987,0.11201 0.248402,0.11201 0.148597,0 0.247293,-0.11312 0.09869,-0.11311 0.09869,-0.34487 0,-0.21846 -0.0998,-0.33047 -0.0987,-0.11311 -0.246184,-0.11311 -0.149706,0 -0.248402,0.112 -0.09869,0.11201 -0.09869,0.33823 z m 1.133332,-0.80731 v -0.22955 h 0.199609 v 0.22955 z m 0,1.39615 v -1.17769 h 0.199609 v 1.17769 z m 0.423614,-0.35153 0.19739,-0.031 q 0.01663,0.11866 0.09204,0.18187 0.07652,0.0632 0.212915,0.0632 0.137508,0 0.204045,-0.0555 0.06654,-0.0566 0.06654,-0.13196 0,-0.0677 -0.05877,-0.10646 -0.04103,-0.0266 -0.204044,-0.0677 -0.219569,-0.0554 -0.304957,-0.0954 -0.08428,-0.041 -0.128637,-0.112 -0.04325,-0.0721 -0.04325,-0.15858 0,-0.0787 0.03549,-0.14527 0.03659,-0.0676 0.09869,-0.112 0.04657,-0.0344 0.126419,-0.0577 0.08095,-0.0244 0.172993,-0.0244 0.138617,0 0.242857,0.0399 0.105349,0.0399 0.155251,0.10868 0.0499,0.0676 0.06875,0.18186 l -0.195172,0.0266 q -0.01331,-0.0909 -0.07763,-0.14195 -0.06321,-0.051 -0.179647,-0.051 -0.137508,0 -0.196282,0.0455 -0.05877,0.0455 -0.05877,0.10646 0,0.0388 0.0244,0.0699 0.0244,0.0322 0.07652,0.0532 0.02994,0.0111 0.17632,0.051 0.211807,0.0566 0.294977,0.0932 0.08428,0.0355 0.131964,0.10424 0.04768,0.0688 0.04768,0.17078 0,0.0998 -0.05877,0.18852 -0.05766,0.0876 -0.167449,0.13639 -0.109785,0.0477 -0.248402,0.0477 -0.229549,0 -0.350423,-0.0954 -0.119765,-0.0954 -0.153033,-0.28278 z m 1.651205,0.173 0.02883,0.17632 q -0.08428,0.0177 -0.150815,0.0177 -0.108676,0 -0.168558,-0.0344 -0.05988,-0.0344 -0.08428,-0.0898 -0.0244,-0.0566 -0.0244,-0.2362 v -0.67756 h -0.14638 v -0.15526 h 0.14638 v -0.29165 l 0.198499,-0.11976 v 0.41141 h 0.200718 v 0.15526 H 48.43689 v 0.68864 q 0,0.0854 0.01,0.10979 0.01109,0.0244 0.03438,0.0388 0.0244,0.0144 0.06875,0.0144 0.03327,0 0.08761,-0.008 z m 0.120874,-0.41031 q 0,-0.32714 0.181865,-0.48461 0.151924,-0.13085 0.370385,-0.13085 0.242856,0 0.396998,0.15969 0.154143,0.15857 0.154143,0.43914 0,0.22733 -0.06875,0.35818 -0.06765,0.12975 -0.1985,0.20183 -0.129745,0.0721 -0.283887,0.0721 -0.247293,0 -0.400326,-0.15858 -0.151924,-0.15858 -0.151924,-0.45688 z m 0.205153,0 q 0,0.22622 0.0987,0.33933 0.09869,0.11201 0.248402,0.11201 0.148597,0 0.247292,-0.11312 0.09869,-0.11311 0.09869,-0.34487 0,-0.21846 -0.0998,-0.33047 -0.09869,-0.11311 -0.246183,-0.11311 -0.149707,0 -0.248402,0.112 -0.0987,0.11201 -0.0987,0.33823 z m 1.133332,-0.80731 v -0.22955 h 0.199608 v 0.22955 z m 0,1.39615 v -1.17769 h 0.199608 v 1.17769 z m 0.499021,0 v -1.6257 h 0.199608 v 1.6257 z m 0.509001,0 v -1.17769 h 0.178539 v 0.16524 q 0.05545,-0.0865 0.147489,-0.13862 0.09204,-0.0532 0.209588,-0.0532 0.130855,0 0.214025,0.0543 0.08428,0.0543 0.118656,0.15192 0.139726,-0.20626 0.363731,-0.20626 0.175212,0 0.269471,0.0976 0.09426,0.0965 0.09426,0.2983 v 0.80841 h -0.1985 v -0.74187 q 0,-0.11977 -0.01996,-0.17189 -0.01885,-0.0532 -0.06986,-0.0854 -0.05101,-0.0322 -0.119766,-0.0322 -0.1242,0 -0.206262,0.0832 -0.08206,0.0821 -0.08206,0.26393 v 0.68421 h -0.199608 v -0.76516 q 0,-0.13307 -0.04879,-0.19961 -0.04879,-0.0665 -0.159687,-0.0665 -0.08428,0 -0.15636,0.0444 -0.07097,0.0444 -0.103131,0.12975 -0.03216,0.0854 -0.03216,0.24618 v 0.61102 z m 2.660337,-0.14527 q -0.110894,0.0943 -0.214025,0.13308 -0.102022,0.0388 -0.219569,0.0388 -0.194064,0 -0.298304,-0.0943 -0.10424,-0.0954 -0.10424,-0.24286 0,-0.0865 0.03881,-0.15747 0.03992,-0.0721 0.103131,-0.11533 0.06432,-0.0432 0.144162,-0.0654 0.05877,-0.0155 0.177429,-0.0299 0.241748,-0.0288 0.355969,-0.0688 0.0011,-0.041 0.0011,-0.0521 0,-0.12198 -0.05656,-0.17188 -0.07652,-0.0676 -0.227332,-0.0676 -0.140835,0 -0.20848,0.0499 -0.06654,0.0488 -0.09869,0.17411 l -0.195173,-0.0266 q 0.02661,-0.12531 0.08761,-0.20182 0.06099,-0.0776 0.176321,-0.11866 0.115329,-0.0421 0.267253,-0.0421 0.150816,0 0.245075,0.0355 0.09426,0.0355 0.138617,0.0898 0.04436,0.0532 0.0621,0.13529 0.01,0.051 0.01,0.18408 v 0.26615 q 0,0.27834 0.0122,0.35264 0.01331,0.0732 0.05101,0.14083 h -0.20848 q -0.03105,-0.0621 -0.03992,-0.14527 z m -0.01663,-0.44579 q -0.108676,0.0444 -0.326027,0.0754 -0.123092,0.0177 -0.174103,0.0399 -0.05101,0.0222 -0.07874,0.0654 -0.02772,0.0421 -0.02772,0.0943 0,0.0798 0.05988,0.13307 0.06099,0.0532 0.17743,0.0532 0.115329,0 0.205153,-0.0499 0.08982,-0.051 0.131963,-0.13862 0.03216,-0.0677 0.03216,-0.19961 z"
         id="text57"
         style="font-size:2.2711px;line-height:0;font-family:Arial;-inkscape-font-specification:'Arial, Normal';fill-rule:evenodd;stroke:#000000;stroke-width:0.107296"
         aria-label="Poistoilma" /><path
         d="m 157.16401,124.55061 v -1.43385 h -0.53562 v -0.19185 h 1.28859 v 0.19185 h -0.53784 v 1.43385 z m 1.63568,0 v -0.17299 q -0.13751,0.19961 -0.37371,0.19961 -0.10424,0 -0.19517,-0.0399 -0.0898,-0.0399 -0.13419,-0.0998 -0.0432,-0.061 -0.061,-0.1486 -0.0122,-0.0588 -0.0122,-0.1863 v -0.72968 h 0.19961 v 0.65317 q 0,0.15636 0.0122,0.21069 0.0188,0.0787 0.0798,0.12421 0.061,0.0443 0.15082,0.0443 0.0898,0 0.16856,-0.0455 0.0787,-0.0466 0.11089,-0.12531 0.0333,-0.0799 0.0333,-0.23066 v -0.63099 h 0.19961 v 1.17769 z m 0.48682,0 v -1.6257 h 0.19961 v 1.6257 z m 0.4347,-0.58884 q 0,-0.32714 0.18187,-0.48461 0.15192,-0.13085 0.37038,-0.13085 0.24286,0 0.397,0.15969 0.15415,0.15857 0.15415,0.43913 0,0.22734 -0.0688,0.35819 -0.0676,0.12975 -0.1985,0.20183 -0.12974,0.0721 -0.28389,0.0721 -0.24729,0 -0.40032,-0.15858 -0.15193,-0.15858 -0.15193,-0.45688 z m 0.20516,0 q 0,0.22622 0.0987,0.33933 0.0987,0.11201 0.2484,0.11201 0.1486,0 0.2473,-0.11312 0.0987,-0.11311 0.0987,-0.34487 0,-0.21847 -0.0998,-0.33047 -0.0987,-0.11311 -0.24619,-0.11311 -0.1497,0 -0.2484,0.112 -0.0987,0.11201 -0.0987,0.33823 z m 1.13333,-0.80731 v -0.22955 h 0.19961 v 0.22955 z m 0,1.39615 v -1.17769 h 0.19961 v 1.17769 z m 0.49902,0 v -1.6257 h 0.19961 v 1.6257 z m 0.509,0 v -1.17769 h 0.17854 v 0.16524 q 0.0555,-0.0865 0.14749,-0.13862 0.092,-0.0532 0.20959,-0.0532 0.13085,0 0.21402,0.0543 0.0843,0.0543 0.11866,0.15192 0.13973,-0.20626 0.36373,-0.20626 0.17521,0 0.26947,0.0976 0.0943,0.0965 0.0943,0.2983 v 0.80841 h -0.1985 v -0.74187 q 0,-0.11977 -0.02,-0.17189 -0.0188,-0.0532 -0.0699,-0.0854 -0.051,-0.0322 -0.11977,-0.0322 -0.1242,0 -0.20626,0.0832 -0.0821,0.0821 -0.0821,0.26393 v 0.68421 h -0.19961 v -0.76516 q 0,-0.13307 -0.0488,-0.19961 -0.0488,-0.0665 -0.15969,-0.0665 -0.0843,0 -0.15636,0.0444 -0.071,0.0444 -0.10313,0.12975 -0.0322,0.0854 -0.0322,0.24618 v 0.61102 z m 2.66034,-0.14527 q -0.11089,0.0943 -0.21403,0.13308 -0.10202,0.0388 -0.21956,0.0388 -0.19407,0 -0.29831,-0.0943 -0.10424,-0.0954 -0.10424,-0.24286 0,-0.0865 0.0388,-0.15747 0.0399,-0.0721 0.10314,-0.11533 0.0643,-0.0433 0.14416,-0.0654 0.0588,-0.0155 0.17743,-0.0299 0.24174,-0.0288 0.35596,-0.0687 0.001,-0.041 0.001,-0.0521 0,-0.12198 -0.0565,-0.17188 -0.0765,-0.0677 -0.22733,-0.0677 -0.14084,0 -0.20848,0.0499 -0.0665,0.0488 -0.0987,0.17411 l -0.19517,-0.0266 q 0.0266,-0.12531 0.0876,-0.20182 0.061,-0.0776 0.17633,-0.11866 0.11532,-0.0421 0.26725,-0.0421 0.15081,0 0.24507,0.0355 0.0943,0.0355 0.13862,0.0898 0.0444,0.0532 0.0621,0.13529 0.01,0.051 0.01,0.18408 v 0.26615 q 0,0.27834 0.0122,0.35264 0.0133,0.0732 0.051,0.14083 h -0.20848 q -0.031,-0.0621 -0.0399,-0.14527 z m -0.0166,-0.44579 q -0.10867,0.0444 -0.32602,0.0754 -0.12309,0.0177 -0.17411,0.0399 -0.051,0.0222 -0.0787,0.0654 -0.0277,0.0421 -0.0277,0.0943 0,0.0798 0.0599,0.13307 0.061,0.0532 0.17743,0.0532 0.11533,0 0.20515,-0.0499 0.0898,-0.051 0.13197,-0.13862 0.0322,-0.0677 0.0322,-0.19961 z"
         id="text58"
         style="font-size:2.2711px;line-height:0;font-family:Arial;-inkscape-font-specification:'Arial, Normal';fill-rule:evenodd;stroke:#000000;stroke-width:0.107296"
         aria-label="Tuloilma" /><path
         d="m 120.71317,98.847978 0.19406,-0.02661 q 0.008,0.186301 0.0699,0.255055 0.0621,0.06875 0.17188,0.06875 0.081,0 0.13973,-0.0366 0.0588,-0.0377 0.081,-0.100913 0.0222,-0.06432 0.0222,-0.204044 v -1.120025 h 0.21513 v 1.107827 q 0,0.204044 -0.0499,0.316046 -0.0488,0.112003 -0.15636,0.170776 -0.10646,0.05877 -0.25062,0.05877 -0.21402,0 -0.32824,-0.123092 -0.11312,-0.123092 -0.10868,-0.365949 z m 1.98832,0.316047 q -0.11089,0.09426 -0.21402,0.133072 -0.10202,0.03881 -0.21957,0.03881 -0.19407,0 -0.29831,-0.09426 -0.10424,-0.09537 -0.10424,-0.242857 0,-0.0865 0.0388,-0.157469 0.0399,-0.07208 0.10313,-0.115329 0.0643,-0.04325 0.14416,-0.06543 0.0588,-0.01552 0.17743,-0.02994 0.24175,-0.02883 0.35597,-0.06875 0.001,-0.04103 0.001,-0.05212 0,-0.121983 -0.0566,-0.171885 -0.0765,-0.06764 -0.22733,-0.06764 -0.14084,0 -0.20848,0.0499 -0.0665,0.04879 -0.0987,0.174103 l -0.19517,-0.02661 q 0.0266,-0.12531 0.0876,-0.201827 0.061,-0.07762 0.17632,-0.118656 0.11533,-0.04214 0.26725,-0.04214 0.15082,0 0.24508,0.03549 0.0943,0.03549 0.13861,0.08982 0.0444,0.05323 0.0621,0.13529 0.01,0.05101 0.01,0.184084 v 0.266144 q 0,0.278343 0.0122,0.352642 0.0133,0.07319 0.051,0.140835 h -0.20848 q -0.0311,-0.0621 -0.0399,-0.145271 z m -0.0166,-0.445792 q -0.10868,0.04436 -0.32603,0.07541 -0.12309,0.01774 -0.1741,0.03992 -0.051,0.02218 -0.0787,0.06543 -0.0277,0.04214 -0.0277,0.09426 0,0.07984 0.0599,0.133072 0.061,0.05323 0.17743,0.05323 0.11533,0 0.20516,-0.0499 0.0898,-0.05101 0.13196,-0.138617 0.0322,-0.06765 0.0322,-0.199608 z m -0.58774,-0.817286 v -0.227331 h 0.20848 v 0.227331 z m 0.41363,0 v -0.227331 h 0.20848 v 0.227331 z m 1.12114,1.22981 0.0288,0.176321 q -0.0843,0.01774 -0.15081,0.01774 -0.10868,0 -0.16856,-0.03438 -0.0599,-0.03438 -0.0843,-0.08982 -0.0244,-0.05656 -0.0244,-0.236203 v -0.67756 h -0.14638 v -0.155251 h 0.14638 v -0.29165 l 0.1985,-0.119765 v 0.411415 h 0.20072 v 0.155251 h -0.20072 v 0.688649 q 0,0.08539 0.01,0.109785 0.0111,0.0244 0.0344,0.03881 0.0244,0.01442 0.0687,0.01442 0.0333,0 0.0876,-0.0078 z m 1.00137,-0.200717 0.20626,0.0255 q -0.0488,0.180757 -0.18076,0.280561 -0.13196,0.0998 -0.33711,0.0998 -0.25839,0 -0.41031,-0.158578 -0.15081,-0.159686 -0.15081,-0.446901 0,-0.297194 0.15303,-0.461317 0.15303,-0.164122 0.397,-0.164122 0.2362,0 0.38591,0.160795 0.1497,0.160796 0.1497,0.452446 0,0.01774 -0.001,0.05323 h -0.87827 q 0.0111,0.194064 0.10978,0.297195 0.0987,0.103131 0.24619,0.103131 0.10978,0 0.18741,-0.05767 0.0776,-0.05767 0.12309,-0.184083 z m -0.65538,-0.322701 h 0.6576 q -0.0133,-0.148597 -0.0754,-0.222896 -0.0954,-0.115329 -0.24729,-0.115329 -0.13751,0 -0.23177,0.09204 -0.0932,0.09204 -0.10313,0.246183 z m 1.11337,-0.694193 v -0.22955 h 0.19961 v 0.22955 z m 0,1.39615 v -1.17769 h 0.19961 v 1.17769 z m 0.49902,0 v -1.6257 h 0.19961 v 1.6257 z m 0.509,0 v -1.17769 h 0.17854 v 0.165231 q 0.0554,-0.0865 0.14749,-0.138616 0.092,-0.05323 0.20959,-0.05323 0.13085,0 0.21402,0.05434 0.0843,0.05434 0.11866,0.151925 0.13972,-0.206262 0.36373,-0.206262 0.17521,0 0.26947,0.09759 0.0943,0.09648 0.0943,0.298304 v 0.808414 h -0.1985 v -0.741878 q 0,-0.119765 -0.02,-0.171885 -0.0189,-0.05323 -0.0699,-0.08539 -0.051,-0.03216 -0.11977,-0.03216 -0.1242,0 -0.20626,0.08317 -0.0821,0.08206 -0.0821,0.263926 v 0.684214 h -0.19961 V 98.54413 q 0,-0.133072 -0.0488,-0.199608 -0.0488,-0.06654 -0.15969,-0.06654 -0.0843,0 -0.15636,0.04436 -0.071,0.04436 -0.10313,0.129745 -0.0322,0.08539 -0.0322,0.246184 v 0.611024 z m 2.66034,-0.145271 q -0.1109,0.09426 -0.21403,0.133072 -0.10202,0.03881 -0.21957,0.03881 -0.19406,0 -0.2983,-0.09426 -0.10424,-0.09537 -0.10424,-0.242857 0,-0.0865 0.0388,-0.157469 0.0399,-0.07208 0.10313,-0.115329 0.0643,-0.04325 0.14416,-0.06543 0.0588,-0.01552 0.17743,-0.02994 0.24175,-0.02883 0.35597,-0.06875 0.001,-0.04103 0.001,-0.05212 0,-0.121983 -0.0565,-0.171885 -0.0765,-0.06764 -0.22734,-0.06764 -0.14083,0 -0.20848,0.0499 -0.0665,0.04879 -0.0987,0.174103 l -0.19517,-0.02661 q 0.0266,-0.12531 0.0876,-0.201827 0.061,-0.07762 0.17632,-0.118656 0.11533,-0.04214 0.26726,-0.04214 0.15081,0 0.24507,0.03549 0.0943,0.03549 0.13862,0.08982 0.0444,0.05323 0.0621,0.13529 0.01,0.05101 0.01,0.184084 v 0.266144 q 0,0.278343 0.0122,0.352642 0.0133,0.07319 0.051,0.140835 h -0.20848 q -0.031,-0.0621 -0.0399,-0.145271 z m -0.0166,-0.445792 q -0.10867,0.04436 -0.32602,0.07541 -0.1231,0.01774 -0.17411,0.03992 -0.051,0.02218 -0.0787,0.06543 -0.0277,0.04214 -0.0277,0.09426 0,0.07984 0.0599,0.133072 0.061,0.05323 0.17743,0.05323 0.11533,0 0.20515,-0.0499 0.0898,-0.05101 0.13196,-0.138617 0.0322,-0.06765 0.0322,-0.199608 z"
         id="text60"
         style="font-size:2.2711px;line-height:0;font-family:Arial;-inkscape-font-specification:'Arial, Normal';fill-rule:evenodd;stroke:#000000;stroke-width:0.107296"
         aria-label="Jäteilma" /><path
         id="path60"
         style="fill:#ffe680;stroke:#504416;stroke-width:0.167147"
         d="m 146.29193,215.49782 c 0,-2.65561 2.98467,-4.80841 6.66643,-4.80841 3.68176,0 6.66642,2.1528 6.66642,4.80841 -10e-6,2.65561 -2.98467,4.80841 -6.66642,4.80841 -3.68176,0 -6.66643,-2.15279 -6.66643,-4.80841 z"
         sodipodi:nodetypes="sssss" /><path
         d="m 142.84721,222.54219 0.62433,-1.6257 h 0.23177 l 0.66536,1.6257 h -0.24507 l -0.18963,-0.49237 h -0.67978 l -0.17854,0.49237 z m 0.46908,-0.66758 h 0.55114 l -0.16966,-0.45023 q -0.0776,-0.20515 -0.11533,-0.33712 -0.031,0.15636 -0.0876,0.3105 z m 1.19433,0.66758 v -1.6257 h 0.19961 v 1.6257 z m 1.27749,-0.14527 q -0.11089,0.0942 -0.21402,0.13307 -0.10203,0.0388 -0.21957,0.0388 -0.19407,0 -0.29831,-0.0943 -0.10424,-0.0954 -0.10424,-0.24286 0,-0.0865 0.0388,-0.15747 0.0399,-0.0721 0.10313,-0.11532 0.0643,-0.0433 0.14416,-0.0654 0.0588,-0.0155 0.17743,-0.0299 0.24175,-0.0288 0.35597,-0.0688 0.001,-0.041 0.001,-0.0521 0,-0.12198 -0.0566,-0.17188 -0.0765,-0.0677 -0.22733,-0.0677 -0.14084,0 -0.20848,0.0499 -0.0665,0.0488 -0.0987,0.1741 l -0.19517,-0.0266 q 0.0266,-0.12531 0.0876,-0.20182 0.061,-0.0776 0.17632,-0.11866 0.11533,-0.0421 0.26725,-0.0421 0.15082,0 0.24508,0.0355 0.0943,0.0355 0.13861,0.0898 0.0444,0.0532 0.0621,0.13529 0.01,0.051 0.01,0.18408 v 0.26615 q 0,0.27834 0.0122,0.35264 0.0133,0.0732 0.051,0.14084 h -0.20848 q -0.0311,-0.0621 -0.0399,-0.14527 z m -0.0166,-0.4458 q -0.10868,0.0444 -0.32603,0.0754 -0.12309,0.0177 -0.1741,0.0399 -0.051,0.0222 -0.0787,0.0654 -0.0277,0.0421 -0.0277,0.0943 0,0.0798 0.0599,0.13307 0.061,0.0532 0.17743,0.0532 0.11533,0 0.20515,-0.0499 0.0898,-0.051 0.13197,-0.13862 0.0322,-0.0676 0.0322,-0.19961 z m 0.43359,0.10313 v -0.20071 h 0.61324 v 0.20071 z m 1.60241,0.34267 q -0.11089,0.0942 -0.21402,0.13307 -0.10202,0.0388 -0.21957,0.0388 -0.19407,0 -0.29831,-0.0943 -0.10424,-0.0954 -0.10424,-0.24286 0,-0.0865 0.0388,-0.15747 0.0399,-0.0721 0.10313,-0.11532 0.0643,-0.0433 0.14416,-0.0654 0.0588,-0.0155 0.17743,-0.0299 0.24175,-0.0288 0.35597,-0.0688 0.001,-0.041 0.001,-0.0521 0,-0.12198 -0.0566,-0.17188 -0.0765,-0.0677 -0.22733,-0.0677 -0.14084,0 -0.20848,0.0499 -0.0665,0.0488 -0.0987,0.1741 l -0.19517,-0.0266 q 0.0266,-0.12531 0.0876,-0.20182 0.061,-0.0776 0.17632,-0.11866 0.11533,-0.0421 0.26725,-0.0421 0.15082,0 0.24508,0.0355 0.0943,0.0355 0.13861,0.0898 0.0444,0.0532 0.0621,0.13529 0.01,0.051 0.01,0.18408 v 0.26615 q 0,0.27834 0.0122,0.35264 0.0133,0.0732 0.051,0.14084 h -0.20848 q -0.031,-0.0621 -0.0399,-0.14527 z m -0.0166,-0.4458 q -0.10868,0.0444 -0.32603,0.0754 -0.12309,0.0177 -0.1741,0.0399 -0.051,0.0222 -0.0787,0.0654 -0.0277,0.0421 -0.0277,0.0943 0,0.0798 0.0599,0.13307 0.061,0.0532 0.17743,0.0532 0.11533,0 0.20516,-0.0499 0.0898,-0.051 0.13196,-0.13862 0.0322,-0.0676 0.0322,-0.19961 z m 1.28304,0.59107 v -0.173 q -0.13751,0.19961 -0.37371,0.19961 -0.10424,0 -0.19518,-0.0399 -0.0898,-0.0399 -0.13418,-0.0998 -0.0433,-0.061 -0.061,-0.14859 -0.0122,-0.0588 -0.0122,-0.1863 v -0.72968 h 0.19961 v 0.65316 q 0,0.15636 0.0122,0.2107 0.0188,0.0787 0.0798,0.1242 0.061,0.0444 0.15082,0.0444 0.0898,0 0.16855,-0.0455 0.0787,-0.0466 0.1109,-0.12531 0.0333,-0.0798 0.0333,-0.23066 v -0.63098 h 0.19961 v 1.17769 z m 0.48682,0 v -1.6257 h 0.19961 v 1.6257 z m 1.27749,-0.14527 q -0.11089,0.0942 -0.21402,0.13307 -0.10202,0.0388 -0.21957,0.0388 -0.19406,0 -0.2983,-0.0943 -0.10424,-0.0954 -0.10424,-0.24286 0,-0.0865 0.0388,-0.15747 0.0399,-0.0721 0.10313,-0.11532 0.0643,-0.0433 0.14416,-0.0654 0.0588,-0.0155 0.17743,-0.0299 0.24175,-0.0288 0.35597,-0.0688 0.001,-0.041 0.001,-0.0521 0,-0.12198 -0.0566,-0.17188 -0.0765,-0.0677 -0.22733,-0.0677 -0.14083,0 -0.20848,0.0499 -0.0665,0.0488 -0.0987,0.1741 l -0.19518,-0.0266 q 0.0266,-0.12531 0.0876,-0.20182 0.061,-0.0776 0.17632,-0.11866 0.11533,-0.0421 0.26725,-0.0421 0.15082,0 0.24508,0.0355 0.0943,0.0355 0.13861,0.0898 0.0444,0.0532 0.0621,0.13529 0.01,0.051 0.01,0.18408 v 0.26615 q 0,0.27834 0.0122,0.35264 0.0133,0.0732 0.051,0.14084 h -0.20848 q -0.031,-0.0621 -0.0399,-0.14527 z m -0.0166,-0.4458 q -0.10868,0.0444 -0.32603,0.0754 -0.12309,0.0177 -0.1741,0.0399 -0.051,0.0222 -0.0787,0.0654 -0.0277,0.0421 -0.0277,0.0943 0,0.0798 0.0599,0.13307 0.061,0.0532 0.17743,0.0532 0.11533,0 0.20516,-0.0499 0.0898,-0.051 0.13196,-0.13862 0.0322,-0.0676 0.0322,-0.19961 z m 0.51122,0.59107 v -1.17769 h 0.17965 v 0.16745 q 0.12974,-0.19407 0.37482,-0.19407 0.10645,0 0.19517,0.0388 0.0898,0.0377 0.13418,0.0998 0.0444,0.0621 0.0621,0.14749 0.0111,0.0554 0.0111,0.19406 v 0.72414 h -0.19961 v -0.71638 q 0,-0.12198 -0.0233,-0.18186 -0.0233,-0.061 -0.0832,-0.0965 -0.0588,-0.0366 -0.13861,-0.0366 -0.12753,0 -0.22068,0.081 -0.092,0.081 -0.092,0.30717 v 0.64319 z m 1.88962,0 v -1.6257 h 0.19961 v 1.6257 z m 1.2775,-0.14527 q -0.1109,0.0942 -0.21403,0.13307 -0.10202,0.0388 -0.21957,0.0388 -0.19406,0 -0.2983,-0.0943 -0.10424,-0.0954 -0.10424,-0.24286 0,-0.0865 0.0388,-0.15747 0.0399,-0.0721 0.10313,-0.11532 0.0643,-0.0433 0.14417,-0.0654 0.0588,-0.0155 0.17743,-0.0299 0.24174,-0.0288 0.35596,-0.0688 0.001,-0.041 0.001,-0.0521 0,-0.12198 -0.0565,-0.17188 -0.0765,-0.0677 -0.22733,-0.0677 -0.14084,0 -0.20848,0.0499 -0.0665,0.0488 -0.0987,0.1741 l -0.19517,-0.0266 q 0.0266,-0.12531 0.0876,-0.20182 0.061,-0.0776 0.17632,-0.11866 0.11533,-0.0421 0.26726,-0.0421 0.15081,0 0.24507,0.0355 0.0943,0.0355 0.13862,0.0898 0.0444,0.0532 0.0621,0.13529 0.01,0.051 0.01,0.18408 v 0.26615 q 0,0.27834 0.0122,0.35264 0.0133,0.0732 0.051,0.14084 h -0.20848 q -0.031,-0.0621 -0.0399,-0.14527 z m -0.0166,-0.4458 q -0.10867,0.0444 -0.32602,0.0754 -0.12309,0.0177 -0.17411,0.0399 -0.051,0.0222 -0.0787,0.0654 -0.0277,0.0421 -0.0277,0.0943 0,0.0798 0.0599,0.13307 0.061,0.0532 0.17743,0.0532 0.11533,0 0.20515,-0.0499 0.0898,-0.051 0.13197,-0.13862 0.0322,-0.0676 0.0322,-0.19961 z m -0.58773,-0.81728 v -0.22733 h 0.20848 v 0.22733 z m 0.41363,0 v -0.22733 h 0.20848 v 0.22733 z m 0.68532,1.40835 v -1.17769 h 0.17854 v 0.16523 q 0.0554,-0.0865 0.14749,-0.13862 0.092,-0.0532 0.20959,-0.0532 0.13085,0 0.21402,0.0543 0.0843,0.0543 0.11866,0.15192 0.13973,-0.20626 0.36373,-0.20626 0.17521,0 0.26947,0.0976 0.0943,0.0965 0.0943,0.2983 v 0.80842 h -0.1985 v -0.74188 q 0,-0.11977 -0.02,-0.17189 -0.0189,-0.0532 -0.0699,-0.0854 -0.051,-0.0322 -0.11977,-0.0322 -0.1242,0 -0.20626,0.0832 -0.0821,0.0821 -0.0821,0.26392 v 0.68422 h -0.19961 v -0.76517 q 0,-0.13307 -0.0488,-0.19961 -0.0488,-0.0665 -0.15969,-0.0665 -0.0843,0 -0.15636,0.0444 -0.071,0.0444 -0.10313,0.12975 -0.0322,0.0854 -0.0322,0.24618 v 0.61103 z m 1.89185,0.45133 v -1.62902 h 0.18186 v 0.15303 q 0.0643,-0.0898 0.14527,-0.13418 0.081,-0.0455 0.19629,-0.0455 0.15081,0 0.26614,0.0776 0.11533,0.0776 0.1741,0.21957 0.0588,0.14083 0.0588,0.30939 0,0.18076 -0.0654,0.32603 -0.0643,0.14416 -0.18852,0.22178 -0.12309,0.0765 -0.25949,0.0765 -0.0998,0 -0.17965,-0.0421 -0.0787,-0.0421 -0.12974,-0.10646 v 0.57332 z m 0.18075,-1.03353 q 0,0.22734 0.0921,0.33601 0.092,0.10868 0.22289,0.10868 0.13307,0 0.22733,-0.112 0.0954,-0.11312 0.0954,-0.34932 0,-0.22511 -0.0932,-0.33712 -0.092,-0.112 -0.22068,-0.112 -0.12752,0 -0.22622,0.11977 -0.0976,0.11865 -0.0976,0.34598 z m 1.00803,-0.007 q 0,-0.32714 0.18186,-0.4846 0.15193,-0.13086 0.37039,-0.13086 0.24285,0 0.397,0.15969 0.15414,0.15858 0.15414,0.43914 0,0.22733 -0.0688,0.35818 -0.0676,0.12975 -0.1985,0.20183 -0.12974,0.0721 -0.28388,0.0721 -0.2473,0 -0.40033,-0.15858 -0.15192,-0.15858 -0.15192,-0.45688 z m 0.20515,0 q 0,0.22622 0.0987,0.33934 0.0987,0.112 0.2484,0.112 0.14859,0 0.24729,-0.11311 0.0987,-0.11312 0.0987,-0.34488 0,-0.21846 -0.0998,-0.33047 -0.0987,-0.11311 -0.24618,-0.11311 -0.14971,0 -0.2484,0.11201 -0.0987,0.112 -0.0987,0.33822 z m 0.0355,-0.8195 v -0.22733 h 0.20848 v 0.22733 z m 0.41363,0 v -0.22733 h 0.20848 v 0.22733 z m 1.11891,1.22981 0.0288,0.17632 q -0.0843,0.0177 -0.15082,0.0177 -0.10867,0 -0.16856,-0.0344 -0.0599,-0.0344 -0.0843,-0.0898 -0.0244,-0.0566 -0.0244,-0.2362 v -0.67756 h -0.14638 v -0.15525 h 0.14638 v -0.29165 l 0.1985,-0.11977 v 0.41142 h 0.20071 v 0.15525 h -0.20071 v 0.68865 q 0,0.0854 0.01,0.10978 0.0111,0.0244 0.0344,0.0388 0.0244,0.0144 0.0688,0.0144 0.0333,0 0.0876,-0.008 z m 0.19629,-1.21761 v -0.22955 h 0.1996 v 0.22955 z m 0,1.39615 v -1.17769 h 0.1996 v 1.17769 z m 0.49902,0 v -1.6257 h 0.19961 v 1.6257 z m 1.27749,-0.14527 q -0.11089,0.0942 -0.21402,0.13307 -0.10203,0.0388 -0.21957,0.0388 -0.19407,0 -0.29831,-0.0943 -0.10424,-0.0954 -0.10424,-0.24286 0,-0.0865 0.0388,-0.15747 0.0399,-0.0721 0.10313,-0.11532 0.0643,-0.0433 0.14416,-0.0654 0.0588,-0.0155 0.17743,-0.0299 0.24175,-0.0288 0.35597,-0.0688 0.001,-0.041 0.001,-0.0521 0,-0.12198 -0.0566,-0.17188 -0.0765,-0.0677 -0.22733,-0.0677 -0.14084,0 -0.20848,0.0499 -0.0665,0.0488 -0.0987,0.1741 l -0.19517,-0.0266 q 0.0266,-0.12531 0.0876,-0.20182 0.061,-0.0776 0.17632,-0.11866 0.11533,-0.0421 0.26725,-0.0421 0.15082,0 0.24508,0.0355 0.0943,0.0355 0.13861,0.0898 0.0444,0.0532 0.0621,0.13529 0.01,0.051 0.01,0.18408 v 0.26615 q 0,0.27834 0.0122,0.35264 0.0133,0.0732 0.051,0.14084 h -0.20848 q -0.031,-0.0621 -0.0399,-0.14527 z m -0.0166,-0.4458 q -0.10868,0.0444 -0.32603,0.0754 -0.12309,0.0177 -0.1741,0.0399 -0.051,0.0222 -0.0787,0.0654 -0.0277,0.0421 -0.0277,0.0943 0,0.0798 0.0599,0.13307 0.061,0.0532 0.17743,0.0532 0.11533,0 0.20515,-0.0499 0.0898,-0.051 0.13197,-0.13862 0.0322,-0.0676 0.0322,-0.19961 z"
         id="text61"
         style="font-size:2.2711px;line-height:0;font-family:Arial;-inkscape-font-specification:'Arial, Normal';fill-rule:evenodd;stroke:#000000;stroke-width:0.1"
         aria-label="Ala-aulan lämpötila" /></g></g></svg>
